<?xml version="1.0" standalone="no"?>
<!DOCTYPE svg PUBLIC "-//W3C//DTD SVG 1.1//EN" "http://www.w3.org/Graphics/SVG/1.1/DTD/svg11.dtd" >
<svg xmlns="http://www.w3.org/2000/svg">
<metadata>
This is a custom SVG webfont generated by Font Squirrel.
Copyright   : Typeface  your company 2009 All Rights Reserved
</metadata>
<defs>
<font id="webfontBHjq0yu3" horiz-adv-x="3302" >
<font-face units-per-em="2048" ascent="1638" descent="-410" />
<missing-glyph horiz-adv-x="1024" />
<glyph unicode=" "  horiz-adv-x="1024" />
<glyph unicode="&#x09;" horiz-adv-x="1024" />
<glyph unicode="&#xa0;" horiz-adv-x="1024" />
<glyph unicode="0" horiz-adv-x="589" d="M50 449v21q0 158 99 236q16 9 25 9h1q-60 -34 -60 -267q0 -111 46 -200q28 -39 63 -39q36 0 63 34q25 35 25 100q0 130 -59 281q-133 387 -133 454q-11 76 -11 153v13q0 124 58 251q15 38 75 97l7 3h4q-58 -52 -58 -212q0 -240 129 -604q65 -216 65 -337v-2 q0 -162 -117 -242q-17 -9 -43 -15q-47 0 -113 58q-66 73 -66 208zM245 1389q0 64 33 173q36 78 80 99q21 9 31 9v-4q-17 -3 -40 -33q-25 -32 -25 -93q0 -112 85 -352q130 -385 130 -662q0 -213 -102 -352q-66 -81 -150 -106l-31 -6v4q73 27 118 76q83 93 83 268v6 q0 199 -140 638q-72 234 -72 335z" />
<glyph unicode="1" horiz-adv-x="1956" d="M50 768q0 93 136 144q61 16 116 16h44q183 0 592 -136q121 -41 288 -72q164 25 164 72q-28 17 -28 52v8q5 56 52 56q37 0 44 -56v-4q0 -16 -20 -60q68 -64 196 -64h20q143 0 244 92l4 -4h4q-52 -94 -184 -140l-60 -12h-20q-124 0 -220 80v8h-8q-79 -72 -200 -72h-24 q-140 0 -720 188q-99 20 -144 20h-52q-188 -21 -188 -112q14 -64 112 -64h16q49 0 108 44h4l8 -8v-8q-46 -60 -152 -60q-132 0 -132 92zM1394 852q9 -36 20 -36q20 10 20 32v12l-16 16h-12q-12 -4 -12 -24z" />
<glyph unicode="2" horiz-adv-x="1956" d="M50 812h4l4 4q101 -92 244 -92h20q128 0 196 64q-20 44 -20 60v4q7 56 44 56q47 0 52 -56v-8q0 -35 -28 -52q0 -47 164 -72q167 31 288 72q409 136 592 136h44q55 0 116 -16q136 -51 136 -144q0 -92 -132 -92q-106 0 -152 60v8l8 8h4q59 -44 108 -44h16q98 0 112 64 q0 91 -188 112h-52q-45 0 -144 -20q-580 -188 -720 -188h-24q-121 0 -200 72h-8v-8q-96 -80 -220 -80h-20l-60 12q-132 46 -184 140zM522 848q0 -22 20 -32q11 0 20 36q0 20 -12 24h-12l-16 -16v-12z" />
<glyph unicode="3" horiz-adv-x="1434" d="M50 17v7q0 10 22 31l7 24q-24 128 -24 171q0 80 81 165q90 72 180 72h27q155 0 341 -185q183 -182 271 -213q76 -34 129 -34q137 0 214 106q36 68 36 101v16q0 122 -132 185q-37 10 -55 10h-22q-112 0 -153 -123l-3 -33v-10q0 -79 96 -115q10 -5 27 -5h4q58 0 89 63l5 19 v26q-13 58 -55 58q-46 -4 -46 -34v-5q0 -17 36 -38l3 -10q0 -17 -32 -21h-7q-47 0 -55 72q0 38 48 74q28 12 46 12h2q77 0 110 -91l5 -34q0 -76 -93 -129q-33 -12 -65 -15q-106 0 -161 116q-12 37 -12 67q0 78 62 151v7l-14 7l-146 -4q-183 0 -279 141q-29 64 -29 111v19 q0 127 212 266q148 118 148 214v14q0 112 -110 137h-14q-67 0 -92 -70v-26q15 -62 60 -62h8q43 7 43 36v9q0 20 -36 31v10q7 12 19 12q58 -10 58 -65q0 -51 -75 -69l-17 -3q-65 0 -93 77l-3 19v12q0 82 94 118l38 5q96 0 144 -104q11 -25 15 -74q0 -100 -115 -209l-101 -77 q-4 0 -5 -12q0 -9 70 -14q127 -49 127 -161q0 -91 -96 -129l-29 -5h-22q-103 17 -103 101q0 63 63 81l16 3q63 -8 63 -51q-3 -21 -19 -21q-26 33 -41 33h-7q-27 0 -34 -38v-15q0 -42 62 -57h17q89 20 89 98v7q0 89 -110 120l-27 3q-101 0 -146 -115l-5 -34v-19 q0 -101 118 -171q72 -31 132 -31h64q146 17 228 17q195 0 274 -168q14 -35 14 -62v-51q0 -139 -151 -225q-73 -32 -144 -32q-194 0 -413 233q-166 157 -218 173q-79 31 -130 31q-94 0 -175 -81q-43 -62 -43 -123q0 -131 134 -182q31 -7 53 -7q62 0 120 64q29 41 29 87 q0 87 -98 120l-22 2q-72 0 -96 -74l-2 -19q7 -65 64 -65q36 9 36 33q0 32 -48 32l-4 7v5q0 23 36 28h7q60 -13 60 -62v-5q0 -58 -70 -84h-31q-69 0 -96 87l-2 28q0 95 110 130l34 5h4q113 0 161 -123l7 -57q0 -98 -110 -168q-50 -17 -74 -17h-39q-55 0 -127 43h-10 q-33 -41 -45 -41l-15 -2q-14 0 -26 17z" />
<glyph unicode="4" horiz-adv-x="1434" d="M50 259v51q0 27 14 62q80 168 274 168q82 0 228 -17h65q59 0 132 31q117 70 117 171v19l-4 34q-46 115 -147 115l-26 -3q-111 -31 -111 -120v-7q0 -78 89 -98h17q62 15 62 57v15q-6 38 -33 38h-7q-16 0 -41 -33q-17 0 -19 21q0 43 62 51l17 -3q62 -18 62 -81 q0 -84 -103 -101h-22l-28 5q-96 38 -96 129q0 112 127 161q69 5 69 14q0 12 -4 12l-101 77q-115 109 -115 209q4 49 14 74q49 104 144 104l38 -5q94 -36 94 -118v-12l-2 -19q-28 -77 -94 -77l-17 3q-74 18 -74 69q0 55 57 65q12 0 20 -12v-10q-36 -11 -36 -31v-9 q0 -29 43 -36h7q46 0 60 62v26q-24 70 -91 70h-15q-110 -25 -110 -137v-14q0 -96 149 -214q211 -139 211 -266v-19q0 -47 -29 -111q-96 -141 -278 -141l-147 4l-14 -7v-7q62 -73 62 -151q0 -30 -12 -67q-55 -116 -160 -116q-33 3 -65 15q-94 53 -94 129l5 34q34 91 110 91h3 q17 0 45 -12q48 -36 48 -74q-8 -72 -55 -72h-7q-31 4 -31 21l2 10q36 21 36 38v5q0 30 -45 34q-43 0 -56 -58v-26l5 -19q31 -63 89 -63h5q17 0 26 5q96 36 96 115v10l-2 33q-41 123 -154 123h-21q-19 0 -56 -10q-132 -63 -132 -185v-16q0 -33 36 -101q77 -106 214 -106 q53 0 130 34q87 31 271 213q185 185 341 185h26q91 0 180 -72q82 -85 82 -165q0 -43 -24 -171l7 -24q21 -21 21 -31v-7q-11 -17 -26 -17l-14 2q-13 0 -46 41h-10q-71 -43 -127 -43h-38q-25 0 -75 17q-110 70 -110 168l7 57q48 123 161 123h5l33 -5q111 -35 111 -130l-3 -28 q-26 -87 -96 -87h-31q-69 26 -69 84v5q0 49 60 62h7q36 -5 36 -28v-5l-5 -7q-48 0 -48 -32q0 -24 36 -33q57 0 65 65l-3 19q-24 74 -96 74l-21 -2q-99 -33 -99 -120q0 -46 29 -87q58 -64 120 -64q23 0 53 7q134 51 134 182q0 61 -43 123q-81 81 -175 81q-51 0 -130 -31 q-52 -16 -218 -173q-219 -233 -413 -233q-70 0 -144 32q-151 86 -151 225z" />
<glyph unicode="5" horiz-adv-x="2354" d="M50 477v7q0 165 166 252q72 29 136 29q158 0 264 -106q6 0 149 -158q112 -90 180 -91h7q84 12 84 55v7l-4 5h-20q-26 0 -26 31v14q0 20 19 20h31l5 4q0 18 -41 36q-9 19 -9 29v5q0 31 53 43q55 0 84 -115l2 -2h91q7 6 31 79q29 38 58 38q53 -12 53 -43v-5q0 -31 -41 -45 q-10 -11 -10 -20l5 -4h34q26 0 26 -32v-9q0 -22 -29 -24h-26l-5 -5v-5q0 -38 65 -55l19 -2h7q119 0 312 237q126 111 214 111q28 7 72 7q143 0 245 -118q53 -81 53 -163v-7q0 -90 -106 -156q-25 -15 -50 -15h-8q-76 0 -110 104l-2 14q0 68 81 79h5q25 0 79 -31h7q24 3 24 24 v2q0 57 -115 89l-31 3q-114 0 -242 -135q-199 -175 -322 -175q-171 0 -281 197h-110q-5 -1 -43 -67q-107 -130 -240 -130q-144 0 -392 240q-88 70 -172 70q-95 0 -142 -72l-5 -20v-2q3 -24 24 -24h3l52 24q12 7 32 7h4q82 -11 82 -79q0 -65 -82 -113l-31 -5h-7 q-79 0 -146 118q-10 35 -10 53z" />
<glyph unicode="6" horiz-adv-x="2354" d="M50 561v7q0 18 10 53q67 117 146 117h7l31 -4q82 -48 82 -113q0 -68 -82 -79h-4q-20 0 -32 7l-52 24h-3q-21 0 -24 -24v-3l5 -19q47 -72 142 -72q84 0 172 70q248 240 392 240q133 0 240 -130q38 -66 43 -67h110q110 197 281 197q123 0 322 -175q128 -135 242 -135l31 3 q115 32 115 88v3q0 21 -24 24h-7q-54 -31 -79 -31h-5q-81 11 -81 79l2 14q34 103 110 103h8q25 0 50 -14q106 -66 106 -156v-7q0 -82 -53 -163q-102 -118 -245 -118q-44 0 -72 7q-88 0 -214 111q-193 237 -312 237h-7l-19 -2q-65 -18 -65 -55v-5l5 -5h26q29 -2 29 -24v-10 q0 -31 -26 -31h-34l-5 -5q0 -9 10 -19q41 -15 41 -45v-5q0 -31 -53 -43q-29 0 -58 38q-24 73 -31 79h-91l-2 -2q-29 -115 -84 -115q-53 12 -53 43v5q0 10 9 28q41 19 41 36l-5 5h-31q-19 0 -19 19v15q0 31 26 31h20l4 5v7q0 42 -84 55h-7q-68 -1 -180 -91 q-143 -158 -149 -158q-106 -106 -264 -106q-64 0 -136 29q-166 86 -166 252z" />
<glyph unicode="7" horiz-adv-x="2345" d="M56 1002q-6 111 50.5 159.5t140 42.5t109.5 -90v-16q0 -59 -104 -80q-48 -31 -48 -72q0 -85 144 -104q101 0 187 140t177.5 140t159.5 -42t107 -42t84.5 135t109 135t109 -135t84.5 -135t107 42t159.5 42t177.5 -140t187 -140q144 19 144 104q0 41 -48 72 q-104 21 -104 80v16q26 84 109.5 90t140 -42.5t50.5 -159.5l-16 -84q-85 -216 -360 -216h-72q-143 0 -340 88q-96 60 -134 66t-9.5 -58.5t28.5 -193.5q0 -130 -58.5 -221.5t-155 -91.5t-155 91.5t-58.5 221.5q0 129 28.5 193.5t-9.5 58.5t-134 -66q-197 -88 -340 -88h-72 q-275 0 -360 216zM700 875q7 -15 26.5 -18t39.5 8q20 10 28.5 27.5t1.5 32.5q-8 15 -27.5 18t-39.5 -8q-20 -10 -28.5 -27.5t-0.5 -32.5zM1083 686q0 -48 22.5 -82.5t67 -34.5t67 34.5t22.5 82.5t-22.5 82.5t-67 34.5t-67 -34.5t-22.5 -82.5zM1549 925q-7 -15 1.5 -32.5 t28.5 -27.5q20 -11 39.5 -8t26.5 18q8 15 -0.5 32.5t-28.5 27.5q-20 11 -39.5 8t-27.5 -18z" />
<glyph unicode="8" horiz-adv-x="2345" d="M56 597l16 84q85 216 360 216h72q143 0 340 -88q96 -60 134 -66t9.5 58.5t-28.5 193.5q0 130 58.5 221.5t155 91.5t155 -91.5t58.5 -221.5q0 -129 -28.5 -193.5t9.5 -58.5t134 66q197 88 340 88h72q275 0 360 -216l16 -84q6 -111 -50.5 -159.5t-140 -42.5t-109.5 90v16 q0 59 104 80q48 31 48 72q0 85 -144 104q-101 0 -187 -140t-177.5 -140t-159.5 42t-107 42t-84.5 -135t-109 -135t-109 135t-84.5 135t-107 -42t-159.5 -42t-177.5 140t-187 140q-144 -19 -144 -104q0 -41 48 -72q104 -21 104 -80v-16q-26 -84 -109.5 -90t-140 42.5 t-50.5 159.5zM700 724q-8 -15 0.5 -32.5t28.5 -27.5q20 -11 39.5 -8t27.5 18q7 15 -1.5 32.5t-28.5 27.5q-20 11 -39.5 8t-26.5 -18zM1083 913q0 -48 22.5 -82.5t67 -34.5t67 34.5t22.5 82.5t-22.5 82.5t-67 34.5t-67 -34.5t-22.5 -82.5zM1549 674q8 -15 27.5 -18t39.5 8 q20 10 28.5 27.5t0.5 32.5q-7 15 -26.5 18t-39.5 -8q-20 -10 -28.5 -27.5t-1.5 -32.5z" />
<glyph unicode="9" horiz-adv-x="1707" d="M50 905h4q27 -73 76 -119q92 -82 268 -82h5q200 0 639 140q234 71 334 71q64 0 174 -32q78 -36 98 -80q9 -21 9 -31h-3q-4 17 -34 39q-31 26 -93 26q-112 0 -351 -85q-385 -131 -663 -131q-212 0 -351 103q-81 66 -106 150zM171 932q0 47 58 113q73 66 208 66h20 q159 0 237 -99q9 -16 9 -25v-2q-35 61 -268 61q-111 0 -199 -46q-39 -28 -39 -63q0 -36 33 -63q36 -25 101 -25q130 0 281 59q387 133 454 133q76 11 152 11h13q125 0 252 -58q38 -15 96 -75l4 -7v-4q-52 58 -212 58q-241 0 -605 -129q-215 -65 -336 -65h-2q-162 0 -242 117 q-9 17 -15 43z" />
<glyph unicode="A" horiz-adv-x="2908" d="M50 446q4 118 10 118q17 83 46 128q41 103 180 210q135 75 238 98q149 26 242 26q75 0 182 -22q212 -69 268 -108q126 -60 370 -206q150 -93 340 -176q147 -74 308 -74h54l44 4q98 14 172 46q84 40 102 56q42 28 98 92q53 80 84 162q24 76 24 168q-2 24 -4 24 q0 62 -40 142q-19 48 -80 114q-75 62 -100 68q-66 48 -226 48h-16q-18 0 -108 -16q-91 -30 -100 -30h-2q0 4 26 14q76 58 270 58h28q108 -14 108 -20q64 -25 120 -68q71 -62 92 -96q38 -57 54 -106q10 0 24 -126v-72q0 -12 -10 -48q-38 -174 -126 -266q-23 -37 -104 -94 q-109 -58 -122 -58q-76 -23 -220 -38l-92 6q-79 1 -208 36q-269 109 -386 188q-270 169 -332 200q-129 73 -296 134q-116 28 -208 28q-84 -6 -100 -10q-94 0 -266 -106q-87 -75 -108 -104q-66 -85 -100 -174q-28 -69 -28 -150q16 -91 42 -144q33 -59 66 -94 q162 -168 390 -168q106 10 128 20q44 3 130 50q122 55 194 190q15 18 24 90q-8 85 -14 104q-30 87 -92 138q-15 25 -108 66q-20 15 -126 28q-62 0 -122 -26q-78 -28 -78 -148l2 -14q0 -35 62 -80q69 -18 70 -22q0 -11 -36 -62q-37 -28 -62 -28h-26q-20 0 -20 4q-35 0 -86 38 q-60 60 -60 140l2 24q0 57 54 124q48 42 88 66q51 26 148 38q54 0 120 -14q20 -4 138 -60q79 -54 116 -110q56 -61 56 -196l-4 -22q0 -71 -64 -178q-68 -77 -88 -84q-29 -38 -166 -84q-46 -18 -182 -32q-148 0 -262 40q-54 16 -128 64q-80 57 -110 100q-33 27 -76 120 q-22 60 -22 122z" />
<glyph unicode="B" horiz-adv-x="2908" d="M50 902v72q14 126 24 126q16 49 54 106q21 34 92 96q56 43 120 68q0 6 108 20h28q194 0 270 -58q26 -10 26 -14h-2q-9 0 -100 30q-90 16 -108 16h-16q-160 0 -226 -48q-25 -6 -100 -68q-61 -66 -80 -114q-40 -80 -40 -142q-2 0 -4 -24q0 -92 24 -168q31 -82 84 -162 q56 -64 98 -92q18 -16 102 -56q74 -32 172 -46l44 -4h54q161 0 308 74q190 83 340 176q244 146 370 206q56 39 268 108q107 22 182 22q93 0 242 -26q103 -23 238 -98q139 -107 180 -210q29 -45 46 -128q6 0 10 -118q0 -62 -22 -122q-43 -93 -76 -120q-30 -43 -110 -100 q-74 -48 -128 -64q-114 -40 -262 -40q-136 14 -182 32q-137 46 -166 84q-20 7 -88 84q-64 107 -64 178l-4 22q0 135 56 196q37 56 116 110q118 56 138 60q66 14 120 14q97 -12 148 -38q40 -24 88 -66q54 -67 54 -124l2 -24q0 -80 -60 -140q-51 -38 -86 -38q0 -4 -20 -4h-26 q-25 0 -62 28q-36 51 -36 62q1 4 70 22q62 45 62 80l2 14q0 120 -78 148q-60 26 -122 26q-106 -13 -126 -28q-93 -41 -108 -66q-62 -51 -92 -138q-6 -19 -14 -104q9 -72 24 -90q72 -135 194 -190q86 -47 130 -50q22 -10 128 -20q228 0 390 168q33 35 66 94q26 53 42 144 q0 81 -28 150q-34 89 -100 174q-21 29 -108 104q-172 106 -266 106q-16 4 -100 10q-92 0 -208 -28q-167 -61 -296 -134q-62 -31 -332 -200q-117 -79 -386 -188q-129 -35 -208 -36l-92 -6q-144 15 -220 38q-13 0 -122 58q-81 57 -104 94q-88 92 -126 266q-10 36 -10 48z" />
<glyph unicode="C" d="M50 554q0 134 104 226q92 60 200 60h26q50 0 138 -18v-4l-62 8q-167 0 -276 -110q-66 -81 -66 -178q0 -113 98 -200q110 -74 202 -74h10q138 0 278 112q18 4 182 164q155 164 304 346q219 246 352 350q225 178 518 178q113 -5 228 -60q72 -36 156 -118l36 -48 q130 56 268 56h30q129 0 280 -72q196 -116 196 -324q0 -107 -70 -228q-174 -278 -630 -278q-134 0 -280 28v4q76 -10 146 -10q416 0 624 220q112 133 112 272v2q0 189 -158 292q-132 68 -224 68h-34q-123 0 -256 -48v-2q12 -17 26 -82l2 -38q0 -146 -130 -228 q-38 -12 -52 -12h-10q-72 0 -116 82q-8 35 -8 52q0 73 100 160q71 51 156 82l4 4q-160 178 -402 178q-161 0 -364 -114q-107 -71 -198 -152q-143 -128 -360 -362q-249 -261 -288 -280q-242 -212 -426 -212h-8q-131 0 -230 64q-128 96 -128 244zM2214 940q0 -97 100 -114h16 q49 0 108 68q52 72 52 158q0 71 -28 116q-248 -96 -248 -226v-2z" />
<glyph unicode="D" d="M50 848q0 208 196 324q151 72 280 72h30q138 0 268 -56l36 48q84 82 156 118q115 55 228 60q293 0 518 -178q133 -104 352 -350q149 -182 304 -346q164 -160 182 -164q140 -112 278 -112h10q92 0 202 74q98 87 98 200q0 97 -66 178q-109 110 -276 110l-62 -8v4 q88 18 138 18h26q108 0 200 -60q104 -92 104 -226q0 -148 -128 -244q-99 -64 -230 -64h-8q-184 0 -426 212q-39 19 -288 280q-217 234 -360 362q-91 81 -198 152q-203 114 -364 114q-242 0 -402 -178l4 -4q85 -31 156 -82q100 -87 100 -160q0 -17 -8 -52q-44 -82 -116 -82 h-10q-14 0 -52 12q-130 82 -130 228l2 38q14 65 26 82v2q-133 48 -256 48h-34q-92 0 -224 -68q-158 -103 -158 -292v-2q0 -139 112 -272q208 -220 624 -220q70 0 146 10v-4q-146 -28 -280 -28q-456 0 -630 278q-70 121 -70 228zM812 1052q0 -86 52 -158q59 -68 108 -68h16 q100 17 100 114v2q0 130 -248 226q-28 -45 -28 -116z" />
<glyph unicode="E" d="M50 1106q0 148 128 244q99 64 230 64h8q184 0 426 -212q39 -19 288 -280q217 -234 360 -362q91 -81 198 -152q203 -114 364 -114q242 0 402 178l-4 4q-85 31 -156 82q-100 87 -100 160q0 17 8 52q44 82 116 82h10q14 0 52 -12q130 -82 130 -228l-2 -38q-14 -65 -26 -82 v-2q133 -48 256 -48h34q92 0 224 68q158 103 158 292v2q0 139 -112 272q-208 220 -624 220q-70 0 -146 -10v4q146 28 280 28q456 0 630 -278q70 -121 70 -228q0 -208 -196 -324q-151 -72 -280 -72h-30q-138 0 -268 56l-36 -48q-84 -82 -156 -118q-115 -55 -228 -60 q-293 0 -518 178q-133 104 -352 350q-149 182 -304 346q-164 160 -182 164q-140 112 -278 112h-10q-92 0 -202 -74q-98 -87 -98 -200q0 -97 66 -178q109 -110 276 -110l62 8v-4q-88 -18 -138 -18h-26q-108 0 -200 60q-104 92 -104 226zM2214 718q0 -130 248 -226 q28 45 28 116q0 86 -52 158q-59 68 -108 68h-16q-100 -17 -100 -114v-2z" />
<glyph unicode="F" d="M50 812q0 107 70 228q174 278 630 278q134 0 280 -28v-4q-76 10 -146 10q-416 0 -624 -220q-112 -133 -112 -272v-2q0 -189 158 -292q132 -68 224 -68h34q123 0 256 48v2q-12 17 -26 82l-2 38q0 146 130 228q38 12 52 12h10q72 0 116 -82q8 -35 8 -52q0 -73 -100 -160 q-71 -51 -156 -82l-4 -4q160 -178 402 -178q161 0 364 114q107 71 198 152q143 128 360 362q249 261 288 280q242 212 426 212h8q131 0 230 -64q128 -96 128 -244q0 -134 -104 -226q-92 -60 -200 -60h-26q-50 0 -138 18v4l62 -8q167 0 276 110q66 81 66 178q0 113 -98 200 q-110 74 -202 74h-10q-138 0 -278 -112q-18 -4 -182 -164q-155 -164 -304 -346q-219 -246 -352 -350q-225 -178 -518 -178q-113 5 -228 60q-72 36 -156 118l-36 48q-130 -56 -268 -56h-30q-129 0 -280 72q-196 116 -196 324zM812 608q0 -71 28 -116q248 96 248 226v2 q0 97 -100 114h-16q-49 0 -108 -68q-52 -72 -52 -158z" />
<glyph unicode="G" horiz-adv-x="2891" d="M50 514q0 99 77 180q78 66 194 66h18q35 0 126 -18v-4q-43 6 -76 6h-11q-101 0 -194 -72q-77 -76 -77 -178q0 -87 68 -160q70 -58 142 -70l43 -7q135 0 442 278l275 239q427 362 736 458q179 57 340 57q202 0 412 -98q78 -39 157 -123q119 -137 119 -310v-2 q0 -149 -153 -296q-167 -135 -449 -135h-4q-135 0 -253 23v5q57 -9 109 -9h53q269 0 455 134q96 88 128 157q30 59 30 155q0 148 -94 276q-85 106 -253 155q-155 45 -275 45q-430 0 -921 -398q-118 -90 -414 -354q-248 -213 -347 -248q-59 -25 -107 -25q-117 0 -212 73 q-84 82 -84 200z" />
<glyph unicode="H" horiz-adv-x="2891" d="M50 756v2q0 173 119 310q79 84 157 123q210 98 412 98q161 0 340 -57q309 -96 736 -458l275 -239q307 -278 442 -278l43 7q72 12 142 70q68 73 68 160q0 102 -77 178q-93 72 -194 72h-11q-33 0 -76 -6v4q91 18 126 18h18q116 0 194 -66q77 -81 77 -180q0 -118 -84 -200 q-95 -73 -212 -73q-48 0 -107 25q-99 35 -347 248q-296 264 -414 354q-491 398 -921 398q-120 0 -275 -45q-168 -49 -253 -155q-94 -128 -94 -276q0 -96 30 -155q32 -69 128 -157q186 -134 455 -134h53q52 0 109 9v-5q-118 -23 -253 -23h-4q-282 0 -449 135 q-153 147 -153 296z" />
<glyph unicode="I" horiz-adv-x="2891" d="M50 1016q0 118 84 200q95 73 212 73q48 0 107 -25q99 -35 347 -248q296 -264 414 -354q491 -398 921 -398q120 0 275 45q168 49 253 155q94 128 94 276q0 96 -30 155q-32 69 -128 157q-186 134 -455 134h-53q-52 0 -109 -9v5q118 23 253 23h4q282 0 449 -135 q153 -147 153 -296v-2q0 -173 -119 -310q-79 -84 -157 -123q-210 -98 -412 -98q-161 0 -340 57q-309 96 -736 458l-275 239q-307 278 -442 278l-43 -7q-72 -12 -142 -70q-68 -73 -68 -160q0 -102 77 -178q93 -72 194 -72h11q33 0 76 6v-4q-91 -18 -126 -18h-18 q-116 0 -194 66q-77 81 -77 180z" />
<glyph unicode="J" horiz-adv-x="2891" d="M50 772v2q0 149 153 296q167 135 449 135h4q135 0 253 -23v-5q-57 9 -109 9h-53q-269 0 -455 -134q-96 -88 -128 -157q-30 -59 -30 -155q0 -148 94 -276q85 -106 253 -155q155 -45 275 -45q430 0 921 398q118 90 414 354q248 213 347 248q59 25 107 25q117 0 212 -73 q84 -82 84 -200q0 -99 -77 -180q-78 -66 -194 -66h-18q-35 0 -126 18v4q43 -6 76 -6h11q101 0 194 72q77 76 77 178q0 87 -68 160q-70 58 -142 70l-43 7q-135 0 -442 -278l-275 -239q-427 -362 -736 -458q-179 -57 -340 -57q-202 0 -412 98q-78 39 -157 123 q-119 137 -119 310z" />
<glyph unicode="K" horiz-adv-x="2139" d="M50 323q0 105 102 188q109 76 279 76q202 0 537 -93q313 -79 512 -79h54q112 0 268 45q81 29 146 78q66 55 85 94q45 77 45 155q0 135 -84 211q-50 45 -91 57q-69 26 -126 26h-5q-186 0 -301 -80q-81 -62 -81 -147q0 -99 109 -129q35 -9 56 -9h15q78 0 162 38 q55 36 55 67v3h3v-1l2 -12q0 -59 -59 -99q-31 -21 -91 -35l-54 -6q-81 0 -143 50q-50 44 -60 90q-6 15 -6 52v6q0 47 41 119q102 141 321 141q157 0 255 -102q57 -52 85 -159q8 -38 8 -63v-14q0 -146 -147 -282q-186 -150 -446 -150q-253 0 -606 105q-271 78 -321 78 q-72 15 -177 15q-134 0 -237 -70q-96 -77 -96 -174t93 -161q74 -51 213 -51h8q173 0 267 65q51 48 51 99v4q0 36 -14 75q11 -16 20 -54q6 -30 6 -54q0 -140 -200 -177q-69 -9 -118 -9h-8q-212 0 -301 161q-26 48 -26 112z" />
<glyph unicode="L" horiz-adv-x="2139" d="M50 791v14q0 25 8 63q27 107 85 159q98 102 255 102q219 0 321 -141q41 -72 41 -119v-6q0 -37 -6 -52q-11 -46 -60 -90q-62 -50 -143 -50l-54 6q-60 14 -91 35q-59 40 -59 99l2 12v1h3v-3q0 -31 55 -67q83 -38 162 -38h15q20 0 56 9q109 30 109 129q0 85 -81 147 q-116 80 -301 80h-5q-58 0 -126 -26q-42 -12 -91 -57q-84 -76 -84 -211q0 -78 45 -155q19 -39 85 -94q64 -49 146 -78q156 -45 268 -45h54q198 0 512 79q334 93 537 93q170 0 279 -76q102 -83 102 -188q0 -64 -26 -112q-90 -161 -301 -161h-8q-49 0 -118 9q-200 37 -200 177 q0 24 6 54q9 38 20 54q-14 -39 -14 -75v-4q0 -51 51 -99q93 -65 267 -65h8q139 0 213 51q93 64 93 161t-96 174q-103 70 -237 70q-106 0 -177 -15q-50 0 -321 -78q-354 -105 -606 -105q-261 0 -446 150q-147 136 -147 282z" />
<glyph unicode="M" horiz-adv-x="2139" d="M50 856q0 63 26 112q89 161 301 161h8q49 0 118 -9q200 -37 200 -177q0 -25 -6 -54q-9 -38 -20 -54q14 38 14 75v4q0 50 -51 99q-94 65 -267 65h-8q-139 0 -213 -51q-93 -65 -93 -161q0 -97 96 -174q103 -70 237 -70q105 0 177 15q50 0 321 78q353 105 606 105 q260 0 446 -150q147 -136 147 -282v-14q0 -25 -8 -63q-28 -107 -85 -159q-98 -102 -255 -102q-219 0 -321 141q-41 71 -41 119v6q0 37 6 52q10 46 60 90q62 50 143 50l54 -6q60 -14 91 -35q59 -40 59 -99l-2 -12v-1h-3v3q0 31 -55 67q-84 38 -162 38h-15q-21 0 -56 -9 q-109 -30 -109 -129q0 -86 81 -147q115 -80 301 -80h5q57 0 126 26q41 12 91 57q84 76 84 211q0 78 -45 155q-19 39 -85 94q-65 48 -146 78q-156 45 -268 45h-54q-199 0 -512 -79q-335 -93 -537 -93q-170 0 -279 76q-102 82 -102 188z" />
<glyph unicode="N" horiz-adv-x="2428" d="M50 691v318l16 16h46q21 0 93 -178h8v155l15 15h47l16 -15v-311l-16 -15h-54q-24 0 -93 178h-8v-163l-16 -15h-38zM73 265v7q0 165 166 252q72 29 136 29q158 0 264 -106q6 0 149 -158q112 -90 180 -91h7q84 12 84 55v7l-4 5h-20q-26 0 -26 31v14q0 20 19 20h31l5 4 q0 18 -41 36q-9 19 -9 29v5q0 31 53 43q55 0 84 -115l2 -2h91q7 6 31 79q29 38 58 38q53 -12 53 -43v-5q0 -31 -41 -45q-10 -11 -10 -20l5 -4h34q26 0 26 -32v-9q0 -22 -29 -24h-26l-5 -5v-5q0 -38 65 -55l19 -2h7q119 0 312 237q126 111 214 111q28 7 72 7q143 0 245 -118 q53 -81 53 -163v-7q0 -90 -106 -156q-25 -15 -50 -15h-8q-76 0 -110 104l-2 14q0 68 81 79h5q25 0 79 -31h7q24 3 24 24v2q0 57 -115 89l-31 3q-114 0 -242 -135q-199 -175 -322 -175q-171 0 -281 197h-110q-5 -1 -43 -67q-107 -130 -240 -130q-144 0 -392 240 q-88 70 -172 70q-95 0 -142 -72l-5 -20v-2q3 -24 24 -24h3l52 24q12 7 32 7h4q82 -11 82 -79q0 -65 -82 -113l-31 -5h-7q-79 0 -146 118q-10 35 -10 53zM298 916l8 8h62q21 0 54 -108l62 108h63l7 -8h8q-103 -227 -171 -341h-62v8l55 147zM570 691v218l15 15h47l8 -8l7 8h78 l31 -23l62 23h39q80 0 93 -108v-125l-16 -15h-46l-16 15v140l-23 23h-8q-46 0 -46 -46v-117l-16 -15h-38l-16 15v109q0 42 -31 54h-23q-31 -12 -31 -54v-109l-16 -15h-39zM973 591v318l16 15h139q101 -24 101 -124q-21 -124 -124 -124h-15l-39 8v-93l-16 -16h-46zM1051 808 q0 -55 54 -55q47 0 47 55q-18 46 -55 46q-32 -10 -46 -38v-8zM1253 691v318l15 16h47l15 -16v-85h86q69 -37 69 -108v-125l-15 -15h-47l-15 15v140q-8 23 -47 23q-31 -7 -31 -46v-117l-15 -15h-47zM1509 800q18 132 132 132q124 -21 124 -124v-16l-16 -15h-163q4 -16 39 -31 l109 7h7l16 -15q-60 -70 -116 -70q-132 22 -132 132zM1602 839h77l-23 23h-8q-46 -5 -46 -23zM1796 870v39q0 15 31 15v85l15 16h39l16 -16v-85q31 0 31 -15v-39q0 -16 -31 -16v-163l-16 -15h-39l-15 15v163q-31 0 -31 16zM1959 870v39q0 15 31 15v85l15 16h39l15 -16v-85 q32 0 32 -15v-39q0 -16 -32 -16v-163l-15 -15h-39l-15 15v163q-31 0 -31 16zM2122 792v16q17 124 124 124q132 -22 132 -132v-8l-16 -15h-163q4 -16 39 -31l85 7h39v-15q-54 -70 -116 -70q-124 21 -124 124zM2215 839h77q-8 23 -46 23z" />
<glyph unicode="O" horiz-adv-x="2139" d="M50 374v14q0 146 147 282q185 150 446 150q252 0 606 -105q271 -78 321 -78q71 -15 177 -15q134 0 237 70q96 77 96 174q0 96 -93 161q-74 51 -213 51h-8q-174 0 -267 -65q-51 -49 -51 -99v-4q0 -37 14 -75q-11 16 -20 54q-6 29 -6 54q0 140 200 177q69 9 118 9h8 q211 0 301 -161q26 -49 26 -112q0 -106 -102 -188q-109 -76 -279 -76q-203 0 -537 93q-314 79 -512 79h-54q-112 0 -268 -45q-82 -30 -146 -78q-66 -55 -85 -94q-45 -77 -45 -155q0 -135 84 -211q49 -45 91 -57q68 -26 126 -26h5q185 0 301 80q81 61 81 147q0 99 -109 129 q-36 9 -56 9h-15q-79 0 -162 -38q-55 -36 -55 -67v-3h-3v1l-2 12q0 59 59 99q31 21 91 35l54 6q81 0 143 -50q49 -44 60 -90q6 -15 6 -52v-6q0 -48 -41 -119q-102 -141 -321 -141q-157 0 -255 102q-58 52 -85 159q-8 38 -8 63z" />
<glyph unicode="P" horiz-adv-x="791" d="M51 383q4 58 25 138q20 82 159 361t91 422q94 -145 -59.5 -453t-164.5 -370q-43 -136 -7 -241l10 -31q9 -26 42 -71q27 -34 62 -58q-3 95 26 206q0 21 204 543q164 382 122.5 477t-124.5 128t-165.5 -7.5t-118.5 -165.5q-6 148 96 205t207.5 13t142 -153.5t-16.5 -234.5 t-113 -301l-159 -418q-43 -119 -55 -208q-7 -56 -8 -106q21 -10 69 -24q101 -15 187 23l36 20q47 29 81 76q21 17 52 99q25 91 4 182l-9 25q-28 82 -78 130l-1 2q83 -48 113 -137l3 -10q37 -108 -1 -216q-56 -131 -199 -194q-92 -42 -213 -9l-44 21q1 -114 37 -194l1 -2 l-3 -1l-34 60q-33 72 -38 159q-19 12 -33 25q-80 83 -105 157l-14 41q-8 23 -7 92z" />
<glyph unicode="Q" horiz-adv-x="791" d="M87 433l3 10q30 89 113 137l-1 -2q-50 -48 -78 -130l-9 -25q-21 -91 4 -182q31 -82 52 -99q34 -47 81 -76l36 -20q86 -38 187 -23q48 14 69 24q-1 50 -8 106q-12 89 -55 208l-159 418q-60 176 -113 301t-16.5 234.5t142 153.5t207.5 -13t96 -205q-36 125 -118.5 165.5 t-165.5 7.5t-124.5 -128t122.5 -477q204 -522 204 -543q29 -111 26 -206q35 24 62 58q33 45 42 71l10 31q36 105 -7 241q-11 62 -164.5 370t-59.5 453q-48 -143 91 -422t159 -361q21 -80 25 -138q1 -69 -7 -92l-14 -41q-25 -74 -105 -157q-14 -13 -33 -25q-5 -87 -38 -159 l-34 -60l-3 1l1 2q36 80 37 194l-44 -21q-121 -33 -213 9q-143 63 -199 194q-38 108 -1 216z" />
<glyph unicode="R" horiz-adv-x="791" d="M51 1116q-1 69 7 92l14 41q25 74 105 157q14 13 33 25q5 87 38 159l34 60l3 -1l-1 -2q-36 -80 -37 -194l44 21q121 33 213 -9q143 -63 199 -194q38 -108 1 -216l-3 -10q-30 -89 -113 -137l1 2q50 48 78 130l9 25q21 91 -4 182q-31 82 -52 99q-34 47 -81 76l-36 20 q-86 38 -187 23q-48 -14 -69 -24q1 -50 8 -106q12 -89 55 -208l159 -418q60 -176 113 -301t16.5 -234.5t-142 -153.5t-207.5 13t-96 205q36 -125 118.5 -165.5t165.5 -7.5t124.5 128t-122.5 477q-204 522 -204 543q-29 111 -26 206q-35 -24 -62 -58q-33 -45 -42 -71l-10 -31 q-36 -105 7 -241q11 -62 164.5 -370t59.5 -453q48 143 -91 422t-159 361q-21 80 -25 138z" />
<glyph unicode="S" horiz-adv-x="791" d="M87 1055q-37 108 1 216q56 131 199 194q92 42 213 9l44 -21q-1 114 -37 194l-1 2l3 1l34 -60q33 -72 38 -159q19 -12 33 -25q80 -83 105 -157l14 -41q8 -23 7 -92q-4 -58 -25 -138q-20 -82 -159 -361t-91 -422q-94 145 59.5 453t164.5 370q43 136 7 241l-10 31 q-9 26 -42 71q-27 34 -62 58q3 -95 -26 -206q0 -21 -204 -543q-164 -382 -122.5 -477t124.5 -128t165.5 7.5t118.5 165.5q6 -148 -96 -205t-207.5 -13t-142 153.5t16.5 234.5t113 301l159 418q43 119 55 208q7 56 8 106q-21 10 -69 24q-101 15 -187 -23l-36 -20 q-47 -29 -81 -76q-21 -17 -52 -99q-25 -91 -4 -182l9 -25q28 -82 78 -130l1 -2q-83 48 -113 137z" />
<glyph unicode="T" horiz-adv-x="3126" d="M50 368v22q19 112 110 112h22q70 -33 70 -84q-9 -61 -54 -61q-47 3 -47 28q0 10 21 35v5q0 18 -21 21h-2q-30 -5 -45 -24l2 -35l-9 -40v-2q0 -10 12 -24q36 0 66 -16l28 2l35 -4h7q15 8 24 30q44 38 44 45q0 21 47 91q12 52 26 80v3l-16 21v5q0 8 11 21q59 21 118 61 q40 47 131 47q18 0 31 -7q71 0 169 -78q70 -98 92 -99h2q12 6 12 19v19q0 61 23 101q12 32 17 115v31l-5 30q0 17 19 19h9q16 -2 17 -7q26 0 33 -101h9q77 61 148 61l10 -2h23q35 0 92 -33q98 -68 98 -181v-2q0 -59 -75 -151q0 -20 -80 -23q-46 4 -80 14q-89 53 -89 113 l5 30q22 89 82 89h14q43 0 52 -51q-5 -52 -28 -52q-16 0 -36 21h-7q-10 0 -16 -56q0 -12 16 -17l3 3h21q9 0 45 -17h4l21 31q57 13 57 28q-10 21 -10 31v4q0 10 22 59v12l-3 2l-35 12q-36 80 -108 80q-126 0 -169 -85l9 -35l-2 -12q-28 -37 -28 -47v-5l7 -32v-7l-5 -38 l14 -42l-2 -38q7 -28 21 -28q44 -38 54 -38h5l28 7h11l15 -2q47 -28 54 -28h37l12 -3q52 -28 61 -28l47 14l64 -11h11q20 0 36 21q38 14 65 47h3l2 -3q-2 -16 -7 -16q-12 -45 -92 -85q-43 -19 -176 -35q-113 1 -113 12q-23 0 -155 70q-61 54 -99 54h-11q-38 0 -90 -61h-4 l-7 7v7q0 34 40 57q28 40 47 40l51 -12v2l3 3v4q-15 46 -76 125q-33 43 -82 68q-49 40 -54 40l-52 -2l-47 14h-9q-54 -21 -82 -21q-27 0 -57 -57q-33 -20 -35 -30l3 -26v-26l-5 -31v-4l23 -59l-2 -21v-5q0 -21 21 -38l28 5h5l42 -23h3q17 0 68 47q59 10 59 40v2l-3 14 q0 50 -49 73l-10 -5q-25 -59 -49 -59h-5q-30 0 -35 55q3 38 10 39q0 33 94 45q35 0 87 -28q49 -53 49 -118q-11 -89 -24 -89q-92 -75 -150 -75q-52 0 -108 26h-2l-3 -3q-13 -32 -30 -32t-29 28q-13 63 -18 63q-16 64 -24 64h-7l-2 -3l-7 -9q-32 -89 -54 -104 q-54 -56 -111 -56h-30q-132 46 -132 136zM1572 361l2 3h3q27 -33 66 -47q15 -21 35 -21h12l63 11l47 -14q9 0 61 28l12 3h37q7 0 54 28l15 2h11l29 -7h4q10 0 54 38q14 0 21 28l-2 38l14 42l-5 38v7l8 32v5q0 10 -29 47l-2 12l9 35q-43 85 -169 85q-72 0 -108 -80l-35 -12 l-3 -2v-12q22 -49 22 -59v-4q0 -10 -10 -31q0 -15 57 -28l21 -31h4q36 17 45 17h21l3 -3q16 5 16 17q-6 56 -16 56h-7q-20 -21 -36 -21q-23 0 -28 52q10 51 52 51h14q60 0 82 -89l5 -30q0 -60 -89 -113q-34 -10 -80 -14q-80 3 -80 23q-75 92 -75 151v2q0 113 98 181 q57 33 92 33h23l10 2q71 0 148 -61h9q7 101 33 101q1 5 17 7h9q19 -2 19 -19l-5 -30v-31q5 -83 17 -115q23 -40 23 -101v-19q0 -13 12 -19h2q22 1 92 99q99 78 169 78q13 7 31 7q91 0 131 -47q59 -40 118 -61q11 -13 11 -21v-5l-16 -21v-3q14 -28 26 -80q47 -70 47 -91 q0 -7 44 -45q9 -22 24 -30h7l35 4l28 -2q30 16 66 16q12 14 12 24v2l-9 40l2 35q-15 19 -45 24h-2q-21 -3 -21 -21v-5q21 -25 21 -35q0 -25 -47 -28q-45 0 -54 61q0 51 70 84h22q91 0 110 -112v-22q0 -90 -132 -136h-30q-57 0 -111 56q-22 15 -54 104l-7 9l-2 3h-7 q-8 0 -24 -64q-5 0 -18 -63q-12 -28 -29 -28t-30 32l-2 3h-3q-56 -26 -108 -26q-58 0 -150 75q-13 0 -24 89q0 65 50 118q51 28 86 28q94 -12 94 -45q7 -1 10 -39q-5 -55 -35 -55h-5q-24 0 -49 59l-10 5q-49 -23 -49 -73l-3 -14v-2q0 -30 59 -40q51 -47 68 -47h3l42 23h5 l28 -5q21 17 21 38v5l-2 21l23 59v4l-4 31v26l2 26q-2 10 -35 30q-30 57 -57 57q-28 0 -82 21h-9l-47 -14l-52 2q-5 0 -54 -40q-49 -25 -82 -68q-61 -79 -76 -125v-4l3 -3v-2l51 12q19 0 47 -40q40 -23 40 -57v-7l-7 -7h-4q-52 61 -90 61h-11q-38 0 -99 -54 q-132 -70 -155 -70q0 -11 -113 -12q-133 16 -176 35q-80 40 -92 85q-5 0 -7 16z" />
<glyph unicode="U" horiz-adv-x="2660" d="M50 492v36q32 192 188 192h36q120 -56 120 -144q-16 -104 -92 -104q-80 5 -80 48q0 17 36 60v8q0 31 -36 36h-4q-51 -9 -76 -40l4 -60l-16 -68v-4q0 -17 20 -40q61 0 112 -28l48 4l60 -8h12q26 14 40 52q76 65 76 76q0 37 80 156q20 87 44 136v4l-28 36v8q0 15 20 36 q100 37 200 104q68 80 224 80q30 0 52 -12q120 0 288 -132q119 -167 156 -168h4q20 10 20 32v32q0 103 40 172q20 54 28 196v52l-8 52q0 28 32 32h16q27 -4 28 -12q44 0 56 -172h16q130 104 252 104l16 -4h40q59 0 156 -56q168 -116 168 -308v-4q0 -100 -128 -256 q0 -35 -136 -40q-79 8 -136 24q-152 91 -152 192l8 52q37 152 140 152h24q72 0 88 -88q-8 -88 -48 -88q-26 0 -60 36h-12q-17 0 -28 -96q0 -20 28 -28l4 4h36q15 0 76 -28h8l36 52q96 22 96 48q-16 35 -16 52v8q0 17 36 100v20l-4 4l-60 20q-61 136 -184 136 q-214 0 -288 -144l16 -60l-4 -20q-48 -63 -48 -80v-8l12 -56v-12l-8 -64l24 -72l-4 -64q13 -48 36 -48q76 -64 92 -64h8l48 12h20l24 -4q81 -48 92 -48h64l20 -4q89 -48 104 -48l80 24l108 -20h20q34 0 60 36q66 24 112 80h4l4 -4q-4 -27 -12 -28q-21 -77 -156 -144 q-74 -32 -300 -60q-192 2 -192 20q-39 0 -264 120q-104 92 -168 92h-20q-65 0 -152 -104h-8l-12 12v12q0 57 68 96q48 68 80 68l88 -20v4l4 4v8q-25 78 -128 212q-57 73 -140 116q-84 68 -92 68l-88 -4l-80 24h-16q-92 -36 -140 -36q-46 0 -96 -96q-57 -35 -60 -52l4 -44 v-44l-8 -52v-8l40 -100l-4 -36v-8q0 -35 36 -64l48 8h8l72 -40h4q30 0 116 80q100 17 100 68v4l-4 24q0 85 -84 124l-16 -8q-43 -100 -84 -100h-8q-51 0 -60 92q5 65 16 68q0 55 160 76q60 0 148 -48q84 -90 84 -200q-18 -152 -40 -152q-158 -128 -256 -128q-89 0 -184 44 h-4l-4 -4q-23 -56 -52 -56q-28 0 -48 48q-23 108 -32 108q-26 108 -40 108h-12l-4 -4l-12 -16q-54 -152 -92 -176q-91 -96 -188 -96h-52q-224 78 -224 232z" />
<glyph unicode="V" horiz-adv-x="2660" d="M50 480l4 4h4q46 -56 112 -80q26 -36 60 -36h20l108 20l80 -24q15 0 104 48l20 4h64q11 0 92 48l24 4h20l48 -12h8q16 0 92 64q23 0 36 48l-4 64l24 72l-8 64v12l12 56v8q0 17 -48 80l-4 20l16 60q-74 144 -288 144q-123 0 -184 -136l-60 -20l-4 -4v-20q36 -83 36 -100 v-8q0 -17 -16 -52q0 -26 96 -48l36 -52h8q61 28 76 28h36l4 -4q28 8 28 28q-11 96 -28 96h-12q-34 -36 -60 -36q-40 0 -48 88q16 88 88 88h24q103 0 140 -152l8 -52q0 -101 -152 -192q-57 -16 -136 -24q-136 5 -136 40q-128 156 -128 256v4q0 192 168 308q98 56 156 56h40 l16 4q122 0 252 -104h16q12 172 56 172q1 8 28 12h16q32 -4 32 -32l-8 -52v-52q8 -142 28 -196q40 -69 40 -172v-32q0 -22 20 -32h4q37 1 156 168q168 132 288 132q22 12 52 12q156 0 224 -80q100 -67 200 -104q20 -21 20 -36v-8l-28 -36v-4q24 -49 44 -136q80 -119 80 -156 q0 -11 76 -76q14 -38 40 -52h12l60 8l48 -4q51 28 112 28q20 23 20 40v4l-16 68l4 60q-25 31 -76 40h-4q-36 -5 -36 -36v-8q36 -43 36 -60q0 -43 -80 -48q-76 0 -92 104q0 88 120 144h36q157 0 188 -192v-36q0 -154 -224 -232h-52q-97 0 -188 96q-38 24 -92 176l-12 16l-4 4 h-12q-14 0 -40 -108q-9 0 -32 -108q-20 -48 -48 -48q-29 0 -52 56l-4 4h-4q-95 -44 -184 -44q-98 0 -256 128q-22 0 -40 152q0 110 84 200q89 48 148 48q160 -21 160 -76q11 -3 16 -68q-9 -92 -60 -92h-8q-41 0 -84 100l-16 8q-84 -39 -84 -124l-4 -24v-4q0 -51 100 -68 q86 -80 116 -80h4l72 40h8l48 -8q36 29 36 64v8l-4 36l40 100v8l-8 52v44l4 44q-3 17 -60 52q-50 96 -96 96q-48 0 -140 36h-16l-80 -24l-88 4q-8 0 -92 -68q-83 -43 -140 -116q-103 -134 -128 -212v-8l4 -4v-4l88 20q32 0 80 -68q68 -39 68 -96v-12l-12 -12h-8 q-87 104 -152 104h-20q-64 0 -168 -92q-225 -120 -264 -120q0 -18 -192 -20q-226 28 -300 60q-135 67 -156 144q-8 1 -12 28z" />
<glyph unicode="W" horiz-adv-x="1382" d="M55 627q-5 94 103 125q109 31 241 -78q114 225 252 367q-44 64 -44 180.5t97 236t256.5 123.5t260 -101t85.5 -242.5t-59 -188.5l-12 12q36 96 30 198t-77 180t-222.5 76t-225.5 -82.5t-87.5 -189.5t34.5 -182q75 53 174 41.5t97.5 -92t-104 -85t-177.5 69.5 q-140 -137 -238 -352l5 -4q100 -223 244 -364q75 74 177.5 69.5t104 -85t-97.5 -92t-174 41.5q-48 -73 -34.5 -182t87.5 -189.5t225.5 -82.5t222.5 76t77 180t-30 198l12 12q44 -51 59 -188.5t-85.5 -242.5t-260 -101t-256.5 123.5t-97 236t44 180.5q-138 142 -262 368 q-107 -84 -223.5 -74t-121.5 104zM127 633.5q5 -51.5 83 -62t166 61.5q-123 92 -188.5 72t-60.5 -71.5zM717 1021q56 -52 121 -47t69 41.5t-63 45t-127 -39.5zM728 249q60 -48 127 -39.5t63 45t-69 41.5t-121 -47z" />
<glyph unicode="X" horiz-adv-x="1382" d="M65 32.5q15 137.5 59 188.5l12 -12q-36 -96 -30 -198t77 -180t222.5 -76t225.5 82.5t87.5 189.5t-34.5 182q-75 -53 -174 -41.5t-97.5 92t104 85t177.5 -69.5q144 141 244 364l5 4q-98 215 -238 352q-75 -74 -177.5 -69.5t-104 85t97.5 92t174 -41.5q48 73 34.5 182 t-87.5 189.5t-225.5 82.5t-222.5 -76t-77 -180t30 -198l-12 -12q-44 51 -59 188.5t85.5 242.5t260 101t256.5 -123.5t97 -236t-44 -180.5q138 -142 252 -367q132 109 241 78q108 -31 103 -125t-121.5 -104t-233.5 74q-114 -226 -252 -368q44 -64 44 -180.5t-97 -236 t-256.5 -123.5t-260 101t-85.5 242.5zM464 254.5q-4 -36.5 63 -45t127 39.5q-56 52 -121 47t-69 -41.5zM475 1015.5q4 -36.5 69 -41.5t121 47q-60 48 -127 39.5t-63 -45zM1006 633q88 -72 166 -61.5t83 62t-60.5 71.5t-188.5 -72z" />
<glyph unicode="Y" horiz-adv-x="2000" d="M54 350.5q4 159.5 123.5 256.5t236 97t180.5 -44q142 138 368 252q-84 117 -74 233.5t104 121.5t125 -103q31 -109 -78 -241q225 -114 367 -252q64 44 180.5 44t236 -97t123.5 -256.5t-101 -260t-242.5 -85.5t-188.5 59l12 12q96 -36 198 -30t180 77t76 222.5 t-82.5 225.5t-189.5 87.5t-182 -34.5q53 -75 41.5 -174t-92 -97.5t-85 104t69.5 177.5q-137 140 -352 238l-4 -5q-223 -100 -364 -244q74 -75 69.5 -177.5t-85 -104t-92 97.5t41.5 174q-73 48 -182 34.5t-189.5 -87.5t-82.5 -225.5t76 -222.5t180 -77t198 30l12 -12 q-51 -44 -188.5 -59t-242.5 85.5t-101 260zM574.5 467q8.5 -67 45 -63t41.5 69t-47 121q-48 -60 -39.5 -127zM936.5 1112q-10.5 -78 61.5 -166q92 123 72 188.5t-71.5 60.5t-62 -83zM1339 484q5 -65 41.5 -69t45 63t-39.5 127q-52 -56 -47 -121z" />
<glyph unicode="Z" horiz-adv-x="2000" d="M54 919.5q-4 159.5 101 260t242.5 85.5t188.5 -59l-12 -12q-96 36 -198 30t-180 -77t-76 -222.5t82.5 -225.5t189.5 -87.5t182 34.5q-53 75 -41.5 174t92 97.5t85 -104t-69.5 -177.5q141 -144 364 -244l4 -5q215 98 352 238q-74 75 -69.5 177.5t85 104t92 -97.5 t-41.5 -174q73 -48 182 -34.5t189.5 87.5t82.5 225.5t-76 222.5t-180 77t-198 -30l-12 12q51 44 188.5 59t242.5 -85.5t101 -260t-123.5 -256.5t-236 -97t-180.5 44q-142 -138 -367 -252q109 -132 78 -241q-31 -108 -125 -103t-104 121.5t74 233.5q-226 114 -368 252 q-64 -44 -180.5 -44t-236 97t-123.5 256.5zM574.5 803q-8.5 -67 39.5 -127q52 56 47 121t-41.5 69t-45 -63zM936.5 158q10.5 -78 62 -83t71.5 60.5t-72 188.5q-72 -88 -61.5 -166zM1339 786q-5 -65 47 -121q48 60 39.5 127t-45 63t-41.5 -69z" />
<glyph unicode="a" horiz-adv-x="2718" d="M77.5 1335.5q27.5 116.5 169.5 169t275.5 33t206 -76t55 -134.5t-138.5 -117.5t-297 61.5q179 -70 278.5 -32t107 100.5t-44 109.5t-167 62t-251.5 -32.5t-163 -147.5t46.5 -177.5t176.5 -109.5t245 -28.5t416.5 60.5t441 88t343 32.5t333.5 -38.5t311 -164t200.5 -261.5 t29 -276t-130 -245.5t-305.5 -145.5t-447 17t-406 240.5q-154 -21 -278 2.5t-222 121.5t-132 291q57 -179 148 -267t211 -111t254 -11q-40 57 -54 144q0 90 41.5 168t134.5 132t199 70.5t246.5 -1t258.5 -94t134 -178t-36 -152.5t-127.5 -73t-160.5 -18.5t-159.5 47 t-135.5 136.5q-31 -83 -103.5 -123.5t-195.5 -76.5q150 -170 397 -215t428.5 -8.5t284 129t126.5 222t-22 260.5t-193.5 253.5t-304.5 155t-346.5 26.5t-454 -71.5t-405 -83.5t-317 -16t-276.5 42.5t-176 117.5t-48.5 193.5zM1315 496q17 -79 53 -144q163 50 214 83.5 t100 143.5q83 -121 149.5 -159t147.5 -44t144 15.5t99.5 67t28 115.5t-106.5 150.5t-236 97.5t-246.5 -1t-166.5 -42t-119 -91t-61 -192z" />
<glyph unicode="b" horiz-adv-x="2718" d="M67.5 456.5q-17.5 138.5 29 276t200.5 261.5t311 164t333.5 38.5t343 -32.5t441 -88t416.5 -60.5t245 28.5t176.5 109.5t46.5 177.5t-163 147.5t-251.5 32.5t-167 -62t-44 -109.5t107 -100.5t278.5 32q-176 -101 -297 -61.5t-138.5 117.5t55 134.5t206 76t275.5 -33 t169.5 -169t-48.5 -193.5t-176 -117.5t-276.5 -42.5t-317 16t-405 83.5t-454 71.5t-346.5 -26.5t-304.5 -155t-193.5 -253.5t-22 -260.5t126.5 -222t284 -129t428.5 8.5t397 215q-123 36 -195.5 76.5t-103.5 123.5q-61 -93 -135.5 -136.5t-159.5 -47t-160.5 18.5t-127.5 73 t-36 152.5t134 178t258.5 94t246.5 1t199 -70.5t134.5 -132t41.5 -168q-14 -87 -54 -144q134 -12 254 11t211 111t148 267q-34 -193 -132 -291t-222 -121.5t-278 -2.5q-152 -185 -406 -240.5t-447 -17t-305.5 145.5t-130 245.5zM467.5 574q-8.5 -70 28 -115.5t99.5 -67 t144 -15.5t147.5 44t149.5 159q49 -110 100 -143.5t214 -83.5q36 65 53 144q0 125 -61 192t-119 91t-166.5 42t-246.5 1t-236 -97.5t-106.5 -150.5z" />
<glyph unicode="c" horiz-adv-x="2718" d="M77.5 257.5q-27.5 116.5 48.5 193.5t176 117.5t276.5 42.5t317 -16t405 -83.5t454 -71.5t346.5 26.5t304.5 155t193.5 253.5t22 260.5t-126.5 222t-284 129t-428.5 -8.5t-397 -215q123 -36 195.5 -76.5t103.5 -123.5q61 93 135.5 136.5t159.5 47t160.5 -18.5t127.5 -73 t36 -152.5t-134 -178t-258.5 -94t-246.5 -1t-199 70.5t-134.5 132t-41.5 168q14 87 54 144q-134 12 -254 -11t-211 -111t-148 -267q34 193 132 291t222 121.5t278 2.5q152 185 406 240.5t447 17t305.5 -145.5t130 -245.5t-29 -276t-200.5 -261.5t-311 -164t-333.5 -38.5 t-343 32.5t-441 88t-416.5 60.5t-245 -28.5t-176.5 -109.5t-46.5 -177.5t163 -147.5t251.5 -32.5t167 62t44 109.5t-107 100.5t-278.5 -32q176 101 297 61.5t138.5 -117.5t-55 -134.5t-206 -76t-275.5 33t-169.5 169zM1315 1097q0 -125 61 -192t119 -91t166.5 -42t246.5 -1 t236 97.5t106.5 150.5t-28 115.5t-99.5 67t-144 15.5t-147.5 -44t-149.5 -159q-49 110 -100 143.5t-214 83.5q-36 -65 -53 -144z" />
<glyph unicode="d" horiz-adv-x="2718" d="M67.5 1136.5q17.5 138.5 130 245.5t305.5 145.5t447 -17t406 -240.5q154 21 278 -2.5t222 -121.5t132 -291q-57 179 -148 267t-211 111t-254 11q40 -57 54 -144q0 -90 -41.5 -168t-134.5 -132t-199 -70.5t-246.5 1t-258.5 94t-134 178t36 152.5t127.5 73t160.5 18.5 t159.5 -47t135.5 -136.5q31 83 103.5 123.5t195.5 76.5q-150 170 -397 215t-428.5 8.5t-284 -129t-126.5 -222t22 -260.5t193.5 -253.5t304.5 -155t346.5 -26.5t454 71.5t405 83.5t317 16t276.5 -42.5t176 -117.5t48.5 -193.5t-169.5 -169t-275.5 -33t-206 76t-55 134.5 t138.5 117.5t297 -61.5q-179 70 -278.5 32t-107 -100.5t44 -109.5t167 -62t251.5 32.5t163 147.5t-46.5 177.5t-176.5 109.5t-245 28.5t-416.5 -60.5t-441 -88t-343 -32.5t-333.5 38.5t-311 164t-200.5 261.5t-29 276zM467.5 1019q8.5 -70 106.5 -150.5t236 -97.5t246.5 1 t166.5 42t119 91t61 192q-17 79 -53 144q-163 -50 -214 -83.5t-100 -143.5q-83 121 -149.5 159t-147.5 44t-144 -15.5t-99.5 -67t-28 -115.5z" />
<glyph unicode="e" horiz-adv-x="3076" d="M50 727v30q0 53 42 136q11 24 63 89q50 47 61 49q59 42 115 64q27 14 84 32q89 17 145 17q91 0 140 -11q22 0 117 -34l77 -37q52 -41 63 -54q32 -35 58 -82q18 -70 18 -81v-36q-8 -69 -14 -69q-17 -34 -29 -47q-55 -57 -87 -79q-60 -34 -117 -53q-55 -12 -133 -19 q-88 4 -88 10q-43 9 -99 31q-38 21 -78 58q-8 7 -35 43q-18 37 -23 72l-3 6q0 60 32 98q0 4 41 39q31 22 78 36q56 12 86 12q79 -2 152 -29q44 -26 54 -34q28 -36 28 -46l2 -15q-2 -26 -10 -37q-28 -29 -39 -30q-12 -9 -42 -15q-32 -6 -61 -6h-16l-27 2v2h33q85 13 85 19 q21 9 41 34q10 17 14 27v15q-9 30 -84 65q0 7 -91 22h-34q-22 0 -99 -18q-52 -24 -86 -54q-30 -41 -30 -83l-1 -8q5 -36 18 -54q1 -9 30 -39q38 -29 77 -47q82 -27 121 -27l36 -3q69 0 133 14q7 0 83 30q49 21 61 37q9 2 61 54q27 42 27 53l7 41v21q-12 72 -18 72 q-7 16 -51 74l-51 45q-73 41 -86 41q-46 20 -152 39l-85 7q-80 0 -172 -30q-16 0 -105 -42q-4 0 -80 -56q-67 -61 -67 -69q-39 -52 -48 -81q-16 -45 -16 -71v-22q7 -63 21 -105q35 -83 65 -114q14 -25 86 -91q104 -67 115 -67q55 -28 115 -45q108 -21 148 -21h16 q105 0 243 30q15 0 143 43q-17 21 -25 48q-8 19 -8 48l-1 10q8 59 14 59q8 30 46 74q49 52 59 55q36 28 97 53q36 10 36 13q17 34 27 43q54 53 68 60q40 32 74 44q42 22 66 24q59 16 100 16h38q102 -9 118 -17q55 -14 98 -30q164 98 175 98q81 36 211 75q150 27 189 27h46 q69 -1 180 -20q57 -13 123 -41q34 -15 102 -62q23 -18 36 -33q52 -57 52 -59q57 -91 57 -108q16 -38 16 -60l4 -14q-4 -91 -9 -91q-13 -61 -28 -81q-10 -35 -44 -71q-19 -29 -54 -54q-32 -27 -72 -47q-22 -16 -87 -35q-86 -18 -129 -18q-110 4 -131 11q-31 0 -144 33 q-58 20 -169 71q-3 2 -37 18h-2v1l4 4q-95 -60 -180 -100q-80 -33 -139 -46q-34 -11 -100 -18l-60 -2h-31q-38 0 -152 27l-9 5q-64 -18 -112 -18q0 -1 -17 -1q-69 0 -151 15q-58 18 -79 33q-20 10 -31 22q-187 -54 -254 -54q0 -2 -110 -3h-38q-69 0 -188 23q-62 13 -132 43 q-32 12 -113 64q-9 6 -44 39q-66 68 -72 91q-28 46 -52 123q-10 55 -10 65zM1020 471q4 -49 10 -49q15 -34 24 -37q87 37 184 91h2q-23 52 -23 66l-9 41q0 63 11 86q8 23 8 28q-17 -2 -84 -36q-45 -33 -50 -39q-32 -35 -46 -63q-6 -6 -21 -53zM1094 346q23 -17 65 -34 q75 -26 149 -26q75 8 103 17v2q-10 0 -82 52q-57 54 -57 62q-1 4 -4 4q-79 -40 -158 -69q-16 -7 -16 -8zM1241 579q12 -68 23 -89q91 54 207 137l95 66v2q-56 14 -115 22q-31 5 -76 9q-48 -4 -108 -16q-13 -17 -26 -80v-51zM1286 743h2l36 5q96 0 189 -14q9 -2 81 -21 q179 127 194 135l14 8v1q-119 36 -144 36l-57 2q-90 -8 -112 -17q-49 -14 -75 -30q-33 -12 -57 -35q-26 -17 -71 -70zM1295 435q20 -29 50 -52q15 -19 62 -46q12 -8 46 -21q67 26 136 67q121 83 184 132l85 68l-59 27q-59 25 -136 53q-231 -153 -258 -169zM1501 301 q0 -3 83 -16l82 -6q86 0 208 44q90 43 122 65q44 27 89 58l-172 99h-1q-149 -107 -229 -157q-134 -76 -167 -82q-2 -1 -15 -5zM1691 682q85 -29 174 -69q4 -4 21 -11q93 72 144 102q91 59 126 72q27 16 105 45q77 20 103 20l68 4h17q54 0 115 -17q12 0 81 -32q34 -22 60 -44 q17 -13 35 -43q21 -42 21 -66v-6q0 -32 -26 -71q-47 -44 -67 -44q-14 -8 -83 -17h-17q-44 0 -101 15q-12 0 -70 26q-29 13 -36 15l-205 -123q51 -32 147 -74q45 -22 129 -45q62 -12 149 -17h3q101 8 118 16q64 18 104 39q22 5 64 39q15 9 65 65q37 57 47 96q7 9 13 67l2 29 q-8 62 -13 62q-25 81 -51 117q-39 50 -65 73q-26 26 -84 56q-26 16 -100 39q-60 20 -94 20q-21 5 -123 11h-38q-49 0 -185 -37q-92 -33 -105 -38q-92 -44 -158 -86l-54 -31q133 -70 163 -94q-21 -13 -25 -13q-26 12 -55 33l-115 54q-57 -35 -200 -134q-2 -2 -4 -2v-1z M1942 563l165 -101q175 123 192 123q0 2 5 3v1q-34 16 -139 80l-34 23q-71 -44 -183 -122l-6 -5v-2zM2159 708l31 -23q15 -15 105 -65q16 -11 38 -19q19 12 100 32q65 15 88 15h48q30 0 46 -11q-4 -7 -7 -9l-13 3h-39q-33 0 -143 -44q-24 -12 -27 -12q5 -5 76 -30 q57 -17 78 -17h39q10 0 79 13q34 16 51 30q32 36 32 65v21q-14 53 -36 70q-41 35 -74 49q-72 34 -154 34q-83 -6 -119 -17q-29 -5 -76 -24q-22 -7 -123 -61z" />
<glyph unicode="f" horiz-adv-x="3076" d="M50 678l4 14q0 22 16 60q0 17 57 108q0 2 52 59q13 15 36 33q68 47 102 62q66 28 123 41q111 19 180 20h46q39 0 189 -27q130 -39 211 -75q11 0 175 -98q43 16 98 30q16 8 118 17h38q41 0 100 -16q24 -2 66 -24q34 -12 74 -44q14 -7 68 -60q10 -9 27 -43q0 -3 36 -13 q61 -25 97 -53q10 -3 59 -55q38 -44 46 -74q6 0 14 -59l-1 -10q0 -29 -8 -48q-8 -27 -25 -48q128 -43 143 -43q138 -30 243 -30h16q40 0 148 21q60 17 115 45q11 0 115 67q72 66 86 91q30 31 65 114q14 42 21 105v22q0 26 -16 71q-9 29 -48 81q0 8 -67 69q-76 56 -80 56 q-89 42 -105 42q-92 30 -172 30l-85 -7q-106 -19 -152 -39q-13 0 -86 -41l-51 -45q-44 -58 -51 -74q-6 0 -18 -72v-21l7 -41q0 -11 27 -53q52 -52 61 -54q12 -16 61 -37q76 -30 83 -30q64 -14 133 -14l36 3q39 0 121 27q39 18 77 47q29 30 30 39q13 18 18 54l-1 8 q0 42 -30 83q-34 30 -86 54q-77 18 -99 18h-34q-91 -15 -91 -22q-75 -35 -84 -65v-15q4 -10 14 -27q20 -25 41 -34q0 -6 85 -19h33v-2l-27 -2h-16q-29 0 -61 6q-30 6 -42 15q-11 1 -39 30q-8 11 -10 37l2 15q0 10 28 46q10 8 54 34q73 27 152 29q30 0 86 -12q47 -14 78 -36 q41 -35 41 -39q32 -38 32 -98l-3 -6q-5 -35 -23 -72q-27 -36 -35 -43q-40 -37 -78 -58q-56 -22 -99 -31q0 -6 -88 -10q-78 7 -133 19q-57 19 -117 53q-32 22 -87 79q-12 13 -29 47q-6 0 -14 69v36q0 11 18 81q26 47 58 82q11 13 63 54l77 37q95 34 117 34q49 11 140 11 q56 0 145 -17q57 -18 84 -32q56 -22 115 -64q11 -2 61 -49q52 -65 63 -89q42 -83 42 -136v-30q0 -10 -10 -65q-24 -77 -52 -123q-6 -23 -72 -91q-35 -33 -44 -39q-81 -52 -113 -64q-70 -30 -132 -43q-119 -23 -188 -23h-38q-110 1 -110 3q-67 0 -254 54q-11 -12 -31 -22 q-21 -15 -79 -33q-82 -15 -151 -15q-17 0 -17 1q-48 0 -112 18l-9 -5q-114 -27 -152 -27h-31l-60 2q-66 7 -100 18q-59 13 -139 46q-85 40 -180 100l4 -4v-1h-2q-34 -16 -37 -18q-111 -51 -169 -71q-113 -33 -144 -33q-21 -7 -131 -11q-43 0 -129 18q-65 19 -87 35 q-40 20 -72 47q-35 25 -54 54q-34 36 -44 71q-15 20 -28 81q-5 0 -9 91zM79 653l2 -29q6 -58 13 -67q10 -39 47 -96q50 -56 65 -65q42 -34 64 -39q40 -21 104 -39q17 -8 118 -16h3q87 5 149 17q84 23 129 45q96 42 147 74l-205 123q-7 -2 -36 -15q-58 -26 -70 -26 q-57 -15 -101 -15h-17q-69 9 -83 17q-20 0 -67 44q-26 39 -26 71v6q0 24 21 66q18 30 35 43q26 22 60 44q69 32 81 32q61 17 115 17h17l68 -4q26 0 103 -20q78 -29 105 -45q35 -13 126 -72q51 -30 144 -102q17 7 21 11q89 40 174 69v1q-2 0 -4 2q-143 99 -200 134l-115 -54 q-29 -21 -55 -33q-4 0 -25 13q30 24 163 94l-54 31q-66 42 -158 86q-13 5 -105 38q-136 37 -185 37h-38q-102 -6 -123 -11q-34 0 -94 -20q-74 -23 -100 -39q-58 -30 -84 -56q-26 -23 -65 -73q-26 -36 -51 -117q-5 0 -13 -62zM335 636q0 -29 32 -65q17 -14 51 -30 q69 -13 79 -13h39q21 0 78 17q71 25 76 30q-3 0 -27 12q-110 44 -143 44h-39l-13 -3q-3 2 -7 9q16 11 46 11h48q23 0 88 -15q81 -20 100 -32q22 8 38 19q90 50 105 65l31 23q-101 54 -123 61q-47 19 -76 24q-36 11 -119 17q-82 0 -154 -34q-33 -14 -74 -49q-22 -17 -36 -70 v-21zM772 588q5 -1 5 -3q17 0 192 -123l165 101v2l-6 5q-112 78 -183 122l-34 -23q-105 -64 -139 -80v-1zM991 446q45 -31 89 -58q32 -22 122 -65q122 -44 208 -44l82 6q83 13 83 16q-13 4 -15 5q-33 6 -167 82q-80 50 -229 157h-1zM1218 583l85 -68q63 -49 184 -132 q69 -41 136 -67q34 13 46 21q47 27 62 46q30 23 50 52l-110 59q-27 16 -258 169q-77 -28 -136 -53zM1274 856l14 -8q15 -8 194 -135q72 19 81 21q93 14 189 14l36 -5h2q-45 53 -71 70q-24 23 -57 35q-26 16 -75 30q-22 9 -112 17l-57 -2q-25 0 -144 -36v-1zM1510 693l95 -66 q116 -83 207 -137q11 21 23 89v51q-13 63 -26 80q-60 12 -108 16q-45 -4 -76 -9q-59 -8 -115 -22v-2zM1665 303q28 -9 103 -17q74 0 149 26q42 17 65 34q0 1 -16 8q-79 29 -158 69q-3 0 -4 -4q0 -8 -57 -62q-72 -52 -82 -52v-2zM1836 476h2q97 -54 184 -91q9 3 24 37 q6 0 10 49l-6 35q-15 47 -21 53q-14 28 -46 63q-5 6 -50 39q-67 34 -84 36q0 -5 8 -28q11 -23 11 -86l-9 -41q0 -14 -23 -66z" />
<glyph unicode="g" horiz-adv-x="3076" d="M50 640v30q0 10 10 65q24 77 52 123q6 23 72 91q35 33 44 39q81 52 113 64q70 30 132 43q119 23 188 23h38q110 -1 110 -3q67 0 254 -54q11 12 31 22q21 15 79 33q82 15 151 15q17 0 17 -1q48 0 112 -18l9 5q114 27 152 27h31l60 -2q66 -7 100 -18q59 -13 139 -46 q85 -40 180 -100l-4 4v1h2q34 16 37 18q111 51 169 71q113 33 144 33q21 7 131 11q43 0 129 -18q65 -19 87 -35q40 -20 72 -47q35 -25 54 -54q34 -36 44 -71q15 -20 28 -81q5 0 9 -91l-4 -14q0 -22 -16 -60q0 -17 -57 -108q0 -2 -52 -59q-13 -15 -36 -33q-68 -47 -102 -62 q-66 -28 -123 -41q-111 -19 -180 -20h-46q-39 0 -189 27q-130 39 -211 75q-11 0 -175 98q-43 -16 -98 -30q-16 -8 -118 -17h-38q-41 0 -100 16q-24 2 -66 24q-34 12 -74 44q-14 7 -68 60q-10 9 -27 43q0 3 -36 13q-61 25 -97 53q-10 3 -59 55q-38 44 -46 74q-6 0 -14 59 l1 10q0 29 8 48q8 27 25 48q-128 43 -143 43q-138 30 -243 30h-16q-40 0 -148 -21q-60 -17 -115 -45q-11 0 -115 -67q-72 -66 -86 -91q-30 -31 -65 -114q-14 -42 -21 -105v-22q0 -26 16 -71q9 -29 48 -81q0 -8 67 -69q76 -56 80 -56q89 -42 105 -42q92 -30 172 -30l85 7 q106 19 152 39q13 0 86 41l51 45q44 58 51 74q6 0 18 72v21l-7 41q0 11 -27 53q-52 52 -61 54q-12 16 -61 37q-76 30 -83 30q-64 14 -133 14l-36 -3q-39 0 -121 -27q-39 -18 -77 -47q-29 -30 -30 -39q-13 -18 -18 -54l1 -8q0 -42 30 -83q34 -30 86 -54q77 -18 99 -18h34 q91 15 91 22q75 35 84 65v15q-4 10 -14 27q-20 25 -41 34q0 6 -85 19h-33v2l27 2h16q29 0 61 -6q30 -6 42 -15q11 -1 39 -30q8 -11 10 -37l-2 -15q0 -10 -28 -46q-10 -8 -54 -34q-73 -27 -152 -29q-30 0 -86 12q-47 14 -78 36q-41 35 -41 39q-32 38 -32 98l3 6q5 35 23 72 q27 36 35 43q40 37 78 58q56 22 99 31q0 6 88 10q78 -7 133 -19q57 -19 117 -53q32 -22 87 -79q12 -13 29 -47q6 0 14 -69v-36q0 -11 -18 -81q-26 -47 -58 -82q-11 -13 -63 -54l-77 -37q-95 -34 -117 -34q-49 -11 -140 -11q-56 0 -145 17q-57 18 -84 32q-56 22 -115 64 q-11 2 -61 49q-52 65 -63 89q-42 83 -42 136zM1020 926l6 -35q15 -47 21 -53q14 -28 46 -63q5 -6 50 -39q67 -34 84 -36q0 5 -8 28q-11 23 -11 86l9 41q0 14 23 66h-2q-97 54 -184 91q-9 -3 -24 -37q-6 0 -10 -49zM1094 1051q0 -1 16 -8q79 -29 158 -69q3 0 4 4q0 8 57 62 q72 52 82 52v2q-28 9 -103 17q-74 0 -149 -26q-42 -17 -65 -34zM1241 767q13 -63 26 -80q60 -12 108 -16q45 4 76 9q59 8 115 22v2l-95 66q-116 83 -207 137q-11 -21 -23 -89v-51zM1286 654q45 -53 71 -70q24 -23 57 -35q26 -16 75 -30q22 -9 112 -17l57 2q25 0 144 36v1 l-14 8q-15 8 -194 135q-72 -19 -81 -21q-93 -14 -189 -14l-36 5h-2zM1295 962l110 -59q27 -16 258 -169q77 28 136 53l59 27l-85 68q-63 49 -184 132q-69 41 -136 67q-34 -13 -46 -21q-47 -27 -62 -46q-30 -23 -50 -52zM1501 1096q13 -4 15 -5q33 -6 167 -82 q80 -50 229 -157h1l172 99q-45 31 -89 58q-32 22 -122 65q-122 44 -208 44l-82 -6q-83 -13 -83 -16zM1691 714q2 0 4 -2q143 -99 200 -134l115 54q29 21 55 33q4 0 25 -13q-30 -24 -163 -94l54 -31q66 -42 158 -86q13 -5 105 -38q136 -37 185 -37h38q102 6 123 11 q34 0 94 20q74 23 100 39q58 30 84 56q26 23 65 73q26 36 51 117q5 0 13 62l-2 29q-6 58 -13 67q-10 39 -47 96q-50 56 -65 65q-42 34 -64 39q-40 21 -104 39q-17 8 -118 16h-3q-87 -5 -149 -17q-84 -23 -129 -45q-96 -42 -147 -74l205 -123q7 2 36 15q58 26 70 26 q57 15 101 15h17q69 -9 83 -17q20 0 67 -44q26 -39 26 -71v-6q0 -24 -21 -66q-18 -30 -35 -43q-26 -22 -60 -44q-69 -32 -81 -32q-61 -17 -115 -17h-17l-68 4q-26 0 -103 20q-78 29 -105 45q-35 13 -126 72q-51 30 -144 102q-17 -7 -21 -11q-89 -40 -174 -69v-1zM1942 832 l6 -5q112 -78 183 -122l34 23q105 64 139 80v1q-5 1 -5 3q-17 0 -192 123l-165 -101v-2zM2159 689q101 -54 123 -61q47 -19 76 -24q36 -11 119 -17q82 0 154 34q33 14 74 49q22 17 36 70v21q0 29 -32 65q-17 14 -51 30q-69 13 -79 13h-39q-21 0 -78 -17q-71 -25 -76 -30 q3 0 27 -12q110 -44 143 -44h39l13 3q3 -2 7 -9q-16 -11 -46 -11h-48q-23 0 -88 15q-81 20 -100 32q-22 -8 -38 -19q-90 -50 -105 -65z" />
<glyph unicode="h" horiz-adv-x="3076" d="M50 719q4 91 9 91q13 61 28 81q10 35 44 71q19 29 54 54q32 27 72 47q22 16 87 35q86 18 129 18q110 -4 131 -11q31 0 144 -33q58 -20 169 -71q3 -2 37 -18h2v-1l-4 -4q95 60 180 100q80 33 139 46q34 11 100 18l60 2h31q38 0 152 -27l9 -5q64 18 112 18q0 1 17 1 q69 0 151 -15q58 -18 79 -33q20 -10 31 -22q187 54 254 54q0 2 110 3h38q69 0 188 -23q62 -13 132 -43q32 -12 113 -64q9 -6 44 -39q66 -68 72 -91q28 -46 52 -123q10 -55 10 -65v-30q0 -53 -42 -136q-11 -24 -63 -89q-50 -47 -61 -49q-59 -42 -115 -64q-27 -14 -84 -32 q-89 -17 -145 -17q-91 0 -140 11q-22 0 -117 34l-77 37q-52 41 -63 54q-32 35 -58 82q-18 70 -18 81v36q8 69 14 69q17 34 29 47q55 57 87 79q60 34 117 53q55 12 133 19q88 -4 88 -10q43 -9 99 -31q38 -21 78 -58q8 -7 35 -43q18 -37 23 -72l3 -6q0 -60 -32 -98 q0 -4 -41 -39q-31 -22 -78 -36q-56 -12 -86 -12q-79 2 -152 29q-44 26 -54 34q-28 36 -28 46l-2 15q2 26 10 37q28 29 39 30q12 9 42 15q32 6 61 6h16l27 -2v-2h-33q-85 -13 -85 -19q-21 -9 -41 -34q-10 -17 -14 -27v-15q9 -30 84 -65q0 -7 91 -22h34q22 0 99 18 q52 24 86 54q30 41 30 83l1 8q-5 36 -18 54q-1 9 -30 39q-38 29 -77 47q-82 27 -121 27l-36 3q-69 0 -133 -14q-7 0 -83 -30q-49 -21 -61 -37q-9 -2 -61 -54q-27 -42 -27 -53l-7 -41v-21q12 -72 18 -72q7 -16 51 -74l51 -45q73 -41 86 -41q46 -20 152 -39l85 -7q80 0 172 30 q16 0 105 42q4 0 80 56q67 61 67 69q39 52 48 81q16 45 16 71v22q-7 63 -21 105q-35 83 -65 114q-14 25 -86 91q-104 67 -115 67q-55 28 -115 45q-108 21 -148 21h-16q-105 0 -243 -30q-15 0 -143 -43q17 -21 25 -48q8 -19 8 -48l1 -10q-8 -59 -14 -59q-8 -30 -46 -74 q-49 -52 -59 -55q-36 -28 -97 -53q-36 -10 -36 -13q-17 -34 -27 -43q-54 -53 -68 -60q-40 -32 -74 -44q-42 -22 -66 -24q-59 -16 -100 -16h-38q-102 9 -118 17q-55 14 -98 30q-164 -98 -175 -98q-81 -36 -211 -75q-150 -27 -189 -27h-46q-69 1 -180 20q-57 13 -123 41 q-34 15 -102 62q-23 18 -36 33q-52 57 -52 59q-57 91 -57 108q-16 38 -16 60zM79 744q8 -62 13 -62q25 -81 51 -117q39 -50 65 -73q26 -26 84 -56q26 -16 100 -39q60 -20 94 -20q21 -5 123 -11h38q49 0 185 37q92 33 105 38q92 44 158 86l54 31q-133 70 -163 94q21 13 25 13 q26 -12 55 -33l115 -54q57 35 200 134q2 2 4 2v1q-85 29 -174 69q-4 4 -21 11q-93 -72 -144 -102q-91 -59 -126 -72q-27 -16 -105 -45q-77 -20 -103 -20l-68 -4h-17q-54 0 -115 17q-12 0 -81 32q-34 22 -60 44q-17 13 -35 43q-21 42 -21 66v6q0 32 26 71q47 44 67 44 q14 8 83 17h17q44 0 101 -15q12 0 70 -26q29 -13 36 -15l205 123q-51 32 -147 74q-45 22 -129 45q-62 12 -149 17h-3q-101 -8 -118 -16q-64 -18 -104 -39q-22 -5 -64 -39q-15 -9 -65 -65q-37 -57 -47 -96q-7 -9 -13 -67zM335 740q14 -53 36 -70q41 -35 74 -49 q72 -34 154 -34q83 6 119 17q29 5 76 24q22 7 123 61l-31 23q-15 15 -105 65q-16 11 -38 19q-19 -12 -100 -32q-65 -15 -88 -15h-48q-30 0 -46 11q4 7 7 9l13 -3h39q33 0 143 44q24 12 27 12q-5 5 -76 30q-57 17 -78 17h-39q-10 0 -79 -13q-34 -16 -51 -30q-32 -36 -32 -65 v-21zM772 808q34 -16 139 -80l34 -23q71 44 183 122l6 5v2l-165 101q-175 -123 -192 -123q0 -2 -5 -3v-1zM991 951l172 -99h1q149 107 229 157q134 76 167 82q2 1 15 5q0 3 -83 16l-82 6q-86 0 -208 -44q-90 -43 -122 -65q-44 -27 -89 -58zM1218 814l59 -27q59 -25 136 -53 q231 153 258 169l110 59q-20 29 -50 52q-15 19 -62 46q-12 8 -46 21q-67 -26 -136 -67q-121 -83 -184 -132zM1274 540q119 -36 144 -36l57 -2q90 8 112 17q49 14 75 30q33 12 57 35q26 17 71 70h-2l-36 -5q-96 0 -189 14q-9 2 -81 21q-179 -127 -194 -135l-14 -8v-1z M1510 702q56 -14 115 -22q31 -5 76 -9q48 4 108 16q13 17 26 80v51q-12 68 -23 89q-91 -54 -207 -137l-95 -66v-2zM1665 1092q10 0 82 -52q57 -54 57 -62q1 -4 4 -4q79 40 158 69q16 7 16 8q-23 17 -65 34q-75 26 -149 26q-75 -8 -103 -17v-2zM1836 921q23 -52 23 -66l9 -41 q0 -63 -11 -86q-8 -23 -8 -28q17 2 84 36q45 33 50 39q32 35 46 63q6 6 21 53l6 35q-4 49 -10 49q-15 34 -24 37q-87 -37 -184 -91h-2z" />
<glyph unicode="i" horiz-adv-x="2813" d="M50 691v16q0 38 15 106q22 67 48 105q59 85 168 128q33 16 116 30l51 4h40q94 -10 94 -15q83 -21 142 -65h-2q-56 28 -158 41l-42 2h-15q-109 0 -213 -43q-51 -25 -91 -55q-63 -55 -71 -77q-42 -68 -42 -95q-5 -9 -11 -61v-14q0 -56 30 -131q31 -60 80 -111 q49 -45 81 -65q41 -24 102 -46q85 -25 140 -25h42q73 0 217 35q160 45 309 132l61 39q-100 -51 -261 -97q-177 -44 -294 -44v2q123 22 192 48q172 52 364 155v1h-1q-56 -19 -124 -31q-71 -11 -104 -11h-66q-45 0 -145 22v2q12 -2 43 -2h40q221 0 441 112q40 21 101 64 q26 18 98 79q93 78 184 134q58 35 132 73q129 66 282 100l77 10v-2q-14 0 -147 -51q-142 -63 -245 -128q59 32 142 68q67 27 131 43q101 24 175 24h30q187 0 346 -83q150 -86 208 -234q23 -74 23 -112v-7q0 -114 -95 -218q-61 -55 -104 -73q-39 -19 -91 -32 q-69 -15 -109 -15h-43q-52 0 -136 32q-52 24 -96 58q-39 -23 -115 -43q-105 -22 -175 -22h-40q-222 0 -400 168q0 2 -8 9h1q81 -63 152 -92q147 -64 287 -64h20q106 0 237 42l31 12v1q-44 34 -73 79q-32 52 -32 124q2 57 34 124q18 38 64 77q51 42 120 52q6 3 49 3h10 q53 0 122 -28q26 -14 48 -32q60 -50 60 -112v-13q0 -63 -67 -104q-48 -25 -122 -25q-26 0 -57 5q-5 -42 -53 -101q-54 -50 -82 -58q28 -23 94 -43q71 -15 107 -15h44q134 0 250 75q64 53 70 68q63 87 63 187v29q0 56 -47 142q-20 35 -68 84q-60 52 -92 67q-41 24 -115 49 q-99 25 -169 25q-208 0 -402 -102q-109 -51 -303 -190q156 91 364 157q167 52 318 77l77 12v-2q-147 -30 -260 -70q-135 -44 -300 -124q-113 -58 -242 -142q-294 -210 -321 -223q-107 -67 -196 -104q-182 -72 -358 -72q-160 0 -278 50q-53 21 -104 53q-66 47 -100 90 q-34 40 -54 83q-13 26 -23 78zM1981 616l1 -1v-11q0 -55 62 -135q20 -23 43 -42v-1q38 11 73 40q37 32 61 79q8 21 8 29h-3q-31 8 -58 39q-22 24 -22 52q7 22 22 22h7q26 0 53 -44q9 -37 9 -63v-1q14 -3 43 -3q74 0 129 39q59 49 59 103v3q0 60 -77 116q-60 35 -133 35 q-139 0 -219 -99q-42 -58 -52 -114q-4 -37 -6 -43zM2153 662q0 -40 50 -73l23 -8h3v1q0 75 -45 98q-6 3 -14 3q-12 0 -17 -21z" />
<glyph unicode="j" horiz-adv-x="2813" d="M50 661v7q0 38 23 112q58 148 208 234q159 83 346 83h30q74 0 175 -24q64 -16 131 -43q83 -36 142 -68q-103 65 -245 128q-133 51 -147 51v2l77 -10q153 -34 282 -100q74 -38 132 -73q91 -56 184 -134q72 -61 98 -79q61 -43 101 -64q220 -112 441 -112h40q31 0 43 2v-2 q-100 -22 -145 -22h-66q-33 0 -104 11q-68 12 -124 31h-1v-1q192 -103 364 -155q69 -26 192 -48v-2q-117 0 -294 44q-161 46 -261 97l61 -39q149 -87 309 -132q144 -35 217 -35h42q55 0 140 25q61 22 102 46q32 20 81 65q49 51 80 111q30 75 30 131v14q-6 52 -11 61 q0 27 -42 95q-8 22 -71 77q-40 30 -91 55q-104 43 -213 43h-15l-42 -2q-102 -13 -158 -41h-2q59 44 142 65q0 5 94 15h40l51 -4q83 -14 116 -30q109 -43 168 -128q26 -38 48 -105q15 -68 15 -106v-16l-5 -37q-10 -52 -23 -78q-20 -43 -54 -83q-34 -43 -100 -90 q-51 -32 -104 -53q-118 -50 -278 -50q-176 0 -358 72q-89 37 -196 104q-27 13 -321 223q-129 84 -242 142q-165 80 -300 124q-113 40 -260 70v2l77 -12q151 -25 318 -77q208 -66 364 -157q-194 139 -303 190q-194 102 -402 102q-70 0 -169 -25q-74 -25 -115 -49 q-32 -15 -92 -67q-48 -49 -68 -84q-47 -86 -47 -142v-29q0 -100 63 -187q6 -15 70 -68q116 -75 250 -75h44q36 0 107 15q66 20 94 43q-28 8 -82 58q-48 59 -53 101q-31 -5 -57 -5q-74 0 -122 25q-67 41 -67 104v13q0 62 60 112q22 18 48 32q69 28 122 28h10q43 0 49 -3 q69 -10 120 -52q46 -39 64 -77q32 -67 34 -124q0 -72 -32 -124q-29 -45 -73 -79v-1l31 -12q131 -42 237 -42h20q140 0 287 64q71 29 152 92h1q-8 -7 -8 -9q-178 -168 -400 -168h-40q-70 0 -175 22q-76 20 -115 43q-44 -34 -96 -58q-84 -32 -136 -32h-43q-40 0 -109 15 q-52 13 -91 32q-43 18 -104 73q-95 104 -95 218zM345 718q0 -54 59 -103q55 -39 129 -39q29 0 43 3v1q0 26 9 63q27 44 53 44h7q15 0 22 -22q0 -28 -22 -52q-27 -31 -58 -39h-3q0 -8 8 -29q24 -47 61 -79q35 -29 73 -40v1q23 19 43 42q62 80 62 135v11l1 1q-2 6 -6 43 q-10 56 -52 114q-80 99 -219 99q-73 0 -133 -35q-77 -56 -77 -116v-3zM584 581h3l23 8q50 33 50 73q-5 21 -17 21q-8 0 -14 -3q-45 -23 -45 -98v-1z" />
<glyph unicode="k" horiz-adv-x="2813" d="M50 736v16l5 37q10 52 23 78q20 43 54 83q34 43 100 90q51 32 104 53q118 50 278 50q176 0 358 -72q89 -37 196 -104q27 -13 321 -223q129 -84 242 -142q165 -80 300 -124q113 -40 260 -70v-2l-77 12q-151 25 -318 77q-208 66 -364 157q194 -139 303 -190 q194 -102 402 -102q70 0 169 25q74 25 115 49q32 15 92 67q48 49 68 84q47 86 47 142v29q0 100 -63 187q-6 15 -70 68q-116 75 -250 75h-44q-36 0 -107 -15q-66 -20 -94 -43q28 -8 82 -58q48 -59 53 -101q31 5 57 5q74 0 122 -25q67 -41 67 -104v-13q0 -62 -60 -112 q-22 -18 -48 -32q-69 -28 -122 -28h-10q-43 0 -49 3q-69 10 -120 52q-46 39 -64 77q-32 67 -34 124q0 72 32 124q29 45 73 79v1l-31 12q-131 42 -237 42h-20q-140 0 -287 -64q-71 -29 -152 -92h-1q8 7 8 9q178 168 400 168h40q70 0 175 -22q76 -20 115 -43q44 34 96 58 q84 32 136 32h43q40 0 109 -15q52 -13 91 -32q43 -18 104 -73q95 -104 95 -218v-7q0 -38 -23 -112q-58 -148 -208 -234q-159 -83 -346 -83h-30q-74 0 -175 24q-64 16 -131 43q-83 36 -142 68q103 -65 245 -128q133 -51 147 -51v-2l-77 10q-153 34 -282 100q-74 38 -132 73 q-91 56 -184 134q-72 61 -98 79q-61 43 -101 64q-220 112 -441 112h-40q-31 0 -43 -2v2q100 22 145 22h66q33 0 104 -11q68 -12 124 -31h1v1q-192 103 -364 155q-69 26 -192 48v2q117 0 294 -44q161 -46 261 -97l-61 39q-149 87 -309 132q-144 35 -217 35h-42 q-55 0 -140 -25q-61 -22 -102 -46q-32 -20 -81 -65q-49 -51 -80 -111q-30 -75 -30 -131v-14q6 -52 11 -61q0 -27 42 -95q8 -22 71 -77q40 -30 91 -55q104 -43 213 -43h15l42 2q102 13 158 41h2q-59 -44 -142 -65q0 -5 -94 -15h-40l-51 4q-83 14 -116 30q-109 43 -168 128 q-26 38 -48 105q-15 68 -15 106zM1981 827q2 -6 6 -43q10 -56 52 -114q80 -99 219 -99q73 0 133 35q77 56 77 116v3q0 54 -59 103q-55 39 -129 39q-29 0 -43 -3v-1q0 -26 -9 -63q-27 -44 -53 -44h-7q-15 0 -22 22q0 28 22 52q27 31 58 39h3q0 8 -8 29q-24 47 -61 79 q-35 29 -73 40v-1q-23 -19 -43 -42q-62 -80 -62 -135v-11zM2153 781q5 -21 17 -21q8 0 14 3q45 23 45 98v1h-3l-23 -8q-50 -33 -50 -73z" />
<glyph unicode="l" horiz-adv-x="2813" d="M50 775v7q0 114 95 218q61 55 104 73q39 19 91 32q69 15 109 15h43q52 0 136 -32q52 -24 96 -58q39 23 115 43q105 22 175 22h40q222 0 400 -168q0 -2 8 -9h-1q-81 63 -152 92q-147 64 -287 64h-20q-106 0 -237 -42l-31 -12v-1q44 -34 73 -79q32 -52 32 -124 q-2 -57 -34 -124q-18 -38 -64 -77q-51 -42 -120 -52q-6 -3 -49 -3h-10q-53 0 -122 28q-26 14 -48 32q-60 50 -60 112v13q0 63 67 104q48 25 122 25q26 0 57 -5q5 42 53 101q54 50 82 58q-28 23 -94 43q-71 15 -107 15h-44q-134 0 -250 -75q-64 -53 -70 -68q-63 -87 -63 -187 v-29q0 -56 47 -142q20 -35 68 -84q60 -52 92 -67q41 -24 115 -49q99 -25 169 -25q208 0 402 102q109 51 303 190q-156 -91 -364 -157q-167 -52 -318 -77l-77 -12v2q147 30 260 70q135 44 300 124q113 58 242 142q294 210 321 223q107 67 196 104q182 72 358 72 q160 0 278 -50q53 -21 104 -53q66 -47 100 -90q34 -40 54 -83q13 -26 23 -78l5 -37v-16q0 -38 -15 -106q-22 -67 -48 -105q-59 -85 -168 -128q-33 -16 -116 -30l-51 -4h-40q-94 10 -94 15q-83 21 -142 65h2q56 -28 158 -41l42 -2h15q109 0 213 43q51 25 91 55q63 55 71 77 q42 68 42 95q5 9 11 61v14q0 56 -30 131q-31 60 -80 111q-49 45 -81 65q-41 24 -102 46q-85 25 -140 25h-42q-73 0 -217 -35q-160 -45 -309 -132l-61 -39q100 51 261 97q177 44 294 44v-2q-123 -22 -192 -48q-172 -52 -364 -155v-1h1q56 19 124 31q71 11 104 11h66 q45 0 145 -22v-2q-12 2 -43 2h-40q-221 0 -441 -112q-40 -21 -101 -64q-26 -18 -98 -79q-93 -78 -184 -134q-58 -35 -132 -73q-129 -66 -282 -100l-77 -10v2q14 0 147 51q142 63 245 128q-59 -32 -142 -68q-67 -27 -131 -43q-101 -24 -175 -24h-30q-187 0 -346 83 q-150 86 -208 234q-23 74 -23 112zM345 722q0 -60 77 -116q60 -35 133 -35q139 0 219 99q42 58 52 114q4 37 6 43l-1 1v11q0 55 -62 135q-20 23 -43 42v1q-38 -11 -73 -40q-37 -32 -61 -79q-8 -21 -8 -29h3q31 -8 58 -39q22 -24 22 -52q-7 -22 -22 -22h-7q-26 0 -53 44 q-9 37 -9 63v1q-14 3 -43 3q-74 0 -129 -39q-59 -49 -59 -103v-3zM584 861q0 -75 45 -98q6 -3 14 -3q12 0 17 21q0 40 -50 73l-23 8h-3v-1z" />
<glyph unicode="m" horiz-adv-x="3532" d="M50 570q0 225 144 362q124 102 294 102h16q139 0 256 -90h-4q-95 46 -224 46h-40q-137 -14 -246 -90q-94 -79 -104 -116q-44 -67 -54 -146l-6 -58q0 -134 84 -264q66 -81 90 -94q68 -60 154 -88q82 -24 122 -24h50q164 0 324 122q78 43 300 252q572 587 600 600 q260 210 510 210l100 -10v-4h-2q-191 0 -434 -150q-111 -70 -244 -198l-460 -464q-199 -187 -300 -252q-96 -66 -172 -98q-95 -34 -130 -34h-66q-116 0 -278 70q-72 38 -162 124q-118 149 -118 292zM280 554q0 134 104 226q92 60 200 60h26q50 0 138 -18v-4l-62 8 q-167 0 -276 -110q-66 -81 -66 -178q0 -113 98 -200q110 -74 202 -74h10q138 0 278 112q18 4 182 164q155 164 304 346q219 246 352 350q225 178 518 178q113 -5 228 -60q72 -36 156 -118l36 -48q130 56 268 56h30q129 0 280 -72q196 -116 196 -324q0 -107 -70 -228 q-174 -278 -630 -278q-134 0 -280 28v4q76 -10 146 -10q416 0 624 220q112 133 112 272v2q0 189 -158 292q-132 68 -224 68h-34q-123 0 -256 -48v-2q12 -17 26 -82l2 -38q0 -146 -130 -228q-38 -12 -52 -12h-10q-72 0 -116 82q-8 35 -8 52q0 73 100 160q71 51 156 82l4 4 q-160 178 -402 178q-161 0 -364 -114q-107 -71 -198 -152q-143 -128 -360 -362q-249 -261 -288 -280q-242 -212 -426 -212h-8q-131 0 -230 64q-128 96 -128 244zM688 8v4h2q203 27 500 260q107 86 216 198q101 98 238 256q130 141 200 196q186 151 356 204q95 26 156 26 l38 -4v-4q-48 -3 -272 -114q-168 -93 -328 -236q-108 -103 -238 -252q-100 -114 -254 -254q-216 -182 -366 -244q-101 -44 -194 -44zM2444 940q0 -97 100 -114h16q49 0 108 68q52 72 52 158q0 71 -28 116q-248 -96 -248 -226v-2z" />
<glyph unicode="n" horiz-adv-x="3532" d="M50 848q0 208 196 324q151 72 280 72h30q138 0 268 -56l36 48q84 82 156 118q115 55 228 60q293 0 518 -178q133 -104 352 -350q149 -182 304 -346q164 -160 182 -164q140 -112 278 -112h10q92 0 202 74q98 87 98 200q0 97 -66 178q-109 110 -276 110l-62 -8v4 q88 18 138 18h26q108 0 200 -60q104 -92 104 -226q0 -148 -128 -244q-99 -64 -230 -64h-8q-184 0 -426 212q-39 19 -288 280q-217 234 -360 362q-91 81 -198 152q-203 114 -364 114q-242 0 -402 -178l4 -4q85 -31 156 -82q100 -87 100 -160q0 -17 -8 -52q-44 -82 -116 -82 h-10q-14 0 -52 12q-130 82 -130 228l2 38q14 65 26 82v2q-133 48 -256 48h-34q-92 0 -224 -68q-158 -103 -158 -292v-2q0 -139 112 -272q208 -220 624 -220q70 0 146 10v-4q-146 -28 -280 -28q-456 0 -630 278q-70 121 -70 228zM812 1052q0 -86 52 -158q59 -68 108 -68h16 q100 17 100 114v2q0 130 -248 226q-28 -45 -28 -116zM1116 1280v4l100 10q250 0 510 -210q28 -13 600 -600q222 -209 300 -252q160 -122 324 -122h50q40 0 122 24q86 28 154 88q24 13 90 94q84 130 84 264l-6 58q-10 79 -54 146q-10 37 -104 116q-109 76 -246 90h-40 q-129 0 -224 -46h-4q117 90 256 90h16q170 0 294 -102q144 -137 144 -362q0 -143 -118 -292q-90 -86 -162 -124q-162 -70 -278 -70h-66q-35 0 -130 34q-76 32 -172 98q-101 65 -300 252l-460 464q-133 128 -244 198q-243 150 -434 150h-2zM1138 1144v4l38 4q61 0 156 -26 q170 -53 356 -204q70 -55 200 -196q137 -158 238 -256q109 -112 216 -198q297 -233 500 -260h2v-4l-54 -8q-93 0 -194 44q-150 62 -366 244q-154 140 -254 254q-130 149 -238 252q-160 143 -328 236q-224 111 -272 114z" />
<glyph unicode="o" horiz-adv-x="3532" d="M50 844q0 143 118 292q90 86 162 124q162 70 278 70h66q35 0 130 -34q76 -32 172 -98q101 -65 300 -252l460 -464q133 -128 244 -198q243 -150 434 -150h2v-4l-100 -10q-250 0 -510 210q-28 13 -600 600q-222 209 -300 252q-160 122 -324 122h-50q-40 0 -122 -24 q-86 -28 -154 -88q-24 -13 -90 -94q-84 -130 -84 -264l6 -58q10 -79 54 -146q10 -37 104 -116q109 -76 246 -90h40q129 0 224 46h4q-117 -90 -256 -90h-16q-170 0 -294 102q-144 137 -144 362zM280 860q0 148 128 244q99 64 230 64h8q184 0 426 -212q39 -19 288 -280 q217 -234 360 -362q91 -81 198 -152q203 -114 364 -114q242 0 402 178l-4 4q-85 31 -156 82q-100 87 -100 160q0 17 8 52q44 82 116 82h10q14 0 52 -12q130 -82 130 -228l-2 -38q-14 -65 -26 -82v-2q133 -48 256 -48h34q92 0 224 68q158 103 158 292v2q0 139 -112 272 q-208 220 -624 220q-70 0 -146 -10v4q146 28 280 28q456 0 630 -278q70 -121 70 -228q0 -208 -196 -324q-151 -72 -280 -72h-30q-138 0 -268 56l-36 -48q-84 -82 -156 -118q-115 -55 -228 -60q-293 0 -518 178q-133 104 -352 350q-149 182 -304 346q-164 160 -182 164 q-140 112 -278 112h-10q-92 0 -202 -74q-98 -87 -98 -200q0 -97 66 -178q109 -110 276 -110l62 8v-4q-88 -18 -138 -18h-26q-108 0 -200 60q-104 92 -104 226zM688 1402v4l54 8q93 0 194 -44q150 -62 366 -244q154 -140 254 -254q130 -149 238 -252q160 -143 328 -236 q224 -111 272 -114v-4l-38 -4q-61 0 -156 26q-170 53 -356 204q-70 55 -200 196q-137 158 -238 256q-109 112 -216 198q-297 233 -500 260h-2zM2444 472q0 -130 248 -226q28 45 28 116q0 86 -52 158q-59 68 -108 68h-16q-100 -17 -100 -114v-2z" />
<glyph unicode="p" horiz-adv-x="3532" d="M50 566q0 107 70 228q174 278 630 278q134 0 280 -28v-4q-76 10 -146 10q-416 0 -624 -220q-112 -133 -112 -272v-2q0 -189 158 -292q132 -68 224 -68h34q123 0 256 48v2q-12 17 -26 82l-2 38q0 146 130 228q38 12 52 12h10q72 0 116 -82q8 -35 8 -52q0 -73 -100 -160 q-71 -51 -156 -82l-4 -4q160 -178 402 -178q161 0 364 114q107 71 198 152q143 128 360 362q249 261 288 280q242 212 426 212h8q131 0 230 -64q128 -96 128 -244q0 -134 -104 -226q-92 -60 -200 -60h-26q-50 0 -138 18v4l62 -8q167 0 276 110q66 81 66 178q0 113 -98 200 q-110 74 -202 74h-10q-138 0 -278 -112q-18 -4 -182 -164q-155 -164 -304 -346q-219 -246 -352 -350q-225 -178 -518 -178q-113 5 -228 60q-72 36 -156 118l-36 48q-130 -56 -268 -56h-30q-129 0 -280 72q-196 116 -196 324zM812 362q0 -71 28 -116q248 96 248 226v2 q0 97 -100 114h-16q-49 0 -108 -68q-52 -72 -52 -158zM1116 130v4h2q191 0 434 150q111 70 244 198l460 464q199 187 300 252q96 66 172 98q95 34 130 34h66q116 0 278 -70q72 -38 162 -124q118 -149 118 -292q0 -225 -144 -362q-124 -102 -294 -102h-16q-139 0 -256 90h4 q95 -46 224 -46h40q137 14 246 90q94 79 104 116q44 67 54 146l6 58q0 134 -84 264q-66 81 -90 94q-68 60 -154 88q-82 24 -122 24h-50q-164 0 -324 -122q-78 -43 -300 -252q-572 -587 -600 -600q-260 -210 -510 -210zM1138 266v4q48 3 272 114q168 93 328 236 q108 103 238 252q100 114 254 254q216 182 366 244q101 44 194 44l54 -8v-4h-2q-203 -27 -500 -260q-107 -86 -216 -198q-101 -98 -238 -256q-130 -141 -200 -196q-186 -151 -356 -204q-95 -26 -156 -26z" />
<glyph unicode="q" horiz-adv-x="2045" d="M50 718q0 47 74 67q40 0 77 -29q45 61 106 77l12 3h20q98 0 227 -102v-4q8 0 48 52q-61 73 -61 144q9 106 80 106h6q60 0 74 -93q0 -37 -45 -125l55 -55l70 68q-67 103 -67 189q0 93 109 151l38 6h4l22 -3q51 74 132 74q113 -4 141 -71l9 3q100 0 135 -102l3 -45 q0 -70 -74 -174q92 -95 116 -112l45 42q-77 104 -77 163q0 81 67 93l19 4q54 0 77 -64l4 -13q0 -78 -42 -141l63 -58q107 64 177 64q95 0 179 -77q25 30 51 32h7q55 0 64 -67q-20 -60 -77 -60q-36 0 -74 29h-3q-22 -39 -67 -65q-28 -16 -58 -16h-10q-98 0 -227 103h-3 q-22 -18 -45 -51q61 -71 61 -141q0 -86 -64 -106l-19 -3h-3q-53 0 -74 93q0 29 42 125v6q-16 10 -48 51l-74 -64q67 -115 67 -192q0 -99 -115 -154l-29 -3h-13q-51 -81 -148 -81q-57 0 -112 55l-16 26l-29 -4q-93 0 -128 103l-3 42q0 72 77 176l-119 112l-45 -45 q77 -94 77 -157v-6q0 -93 -86 -93q-60 0 -81 70q0 82 42 148l-66 55q-108 -61 -174 -61q-101 0 -179 77q-23 -33 -51 -33h-7q-64 12 -64 61zM72 718q7 -25 39 -25q14 0 42 16q-13 14 -45 28q-36 -7 -36 -19zM223 740q93 -83 144 -83h36q33 0 106 29q-120 102 -190 102 q-61 0 -96 -48zM582 721l48 -51l45 45l-55 54q0 -9 -38 -48zM591 510q0 -61 45 -71h6q33 0 33 42q0 54 -68 116q-16 -30 -16 -58v-29zM591 948q2 -44 55 -105q16 29 16 45v16q-4 86 -29 86h-3q-32 0 -39 -42zM735 743l113 -105q64 60 64 68l-96 108q-6 0 -81 -71zM771 1003 q24 -73 74 -125l60 70q-32 72 -32 138l7 42l-29 6q-80 -28 -80 -128v-3zM780 443q12 -115 65 -129l25 -6l-6 35q0 66 41 138q-32 39 -83 87q-42 -59 -42 -125zM861 855l99 -102l38 45q-36 39 -77 122h-3zM867 613q28 -24 71 -81q13 24 64 77l-71 77zM902 1077l19 -71 q8 0 10 42q0 38 -26 64zM912 391l9 -54q23 25 23 67q0 29 -19 48h-4zM925 1151q54 -41 54 -97q0 -43 -29 -93q7 -19 97 -112q16 11 54 77q-26 51 -26 96v23q0 57 39 102q-31 61 -96 61q-93 -19 -93 -57zM941 305q41 -68 102 -68q51 0 90 45v3q-67 44 -67 103q0 42 35 103 q-51 69 -83 99q-44 -34 -71 -80q23 -47 23 -90v-25q0 -43 -29 -87v-3zM973 737l77 -89l32 38v7q-63 69 -71 89h-3zM1059 635q36 -43 71 -106l58 61l-93 87zM1059 830l77 -77l52 67q-68 65 -68 80zM1101 1041q0 -19 23 -60h3q13 55 13 96l-7 35h-6q-26 -31 -26 -71zM1114 401 q0 -50 35 -77l3 38q0 49 -32 90zM1146 507q45 -81 45 -141l-10 -55h3q77 0 90 122v6q0 27 -70 129h-4zM1152 734q87 -89 87 -96l71 61l-106 102l-52 -64v-3zM1152 948l71 -70q42 60 42 115v7q-7 107 -65 131l-12 3v-3l3 -22q0 -70 -39 -161zM1370 961q0 -45 68 -112 q16 30 16 58v29q0 62 -55 70q-29 -9 -29 -45zM1374 730q33 -44 48 -53h3q0 9 38 47q-44 42 -44 51zM1383 545q0 -93 42 -93q29 15 29 39q0 53 -55 109q-16 -29 -16 -45v-10zM1536 756q112 -99 193 -99q54 0 96 49q-104 79 -144 79h-39q-33 0 -106 -29zM1892 737 q28 -29 48 -31q33 4 33 21q0 11 -36 23z" />
<glyph unicode="r" horiz-adv-x="1130" d="M50 890q0 56 53 109l25 15l-3 29q0 92 101 126l41 3q70 0 173 -76l109 117l-44 43q-92 -75 -153 -75h-7q-91 0 -91 86q0 57 69 78q81 0 144 -41l55 65q-60 106 -60 169q0 100 76 177q-33 22 -33 50v6q12 64 60 64q45 0 66 -73q0 -39 -28 -75q59 -45 75 -104l3 -13v-19 q0 -96 -101 -222h-3q0 -8 50 -47q72 60 142 60q104 -10 104 -79v-7q0 -58 -91 -71q-36 0 -124 44l-53 -53l66 -71q102 67 186 67q91 0 147 -107l7 -38v-3l-3 -21q72 -51 72 -130q-3 -111 -69 -138l2 -9q0 -98 -100 -133l-44 -2q-68 0 -169 72q-94 -89 -110 -114l41 -43 q102 76 160 76q79 0 91 -67l3 -19q0 -52 -63 -76l-13 -2q-75 0 -138 40l-57 -61q64 -105 64 -173q0 -94 -75 -177q28 -23 31 -49v-7q0 -54 -67 -62q-58 19 -58 75q0 35 29 72v4q-38 21 -64 65q-16 27 -16 57v9q0 96 102 222v3q-19 22 -51 44q-69 -60 -138 -60q-84 0 -104 64 l-4 18v4q0 52 91 72q30 0 124 -41h6q9 15 50 47l-63 73q-113 -66 -188 -66q-96 0 -151 113l-4 28v12q-78 49 -78 146zM94 861q0 -49 44 -88h3q43 66 100 66q42 0 102 -35q67 51 97 82q-34 43 -79 69q-46 -22 -87 -22h-26q-42 0 -85 28h-2q-67 -40 -67 -100zM163 1030l35 7 q64 0 135 -41q38 31 85 82q-57 40 -122 40q-113 -10 -126 -62zM166 722q0 -74 119 -87h7q26 0 126 69v2l-60 54q-79 -43 -138 -43l-54 9v-4zM179 757l37 -3q47 0 89 32l-51 6q-48 0 -75 -35zM192 981q24 -22 66 -22q27 0 47 18v4l-60 9zM292 1254q0 -32 41 -32q52 0 114 67 q-30 15 -58 15h-28q-60 0 -69 -44v-6zM305 487q14 -29 38 -29q52 0 106 53q-28 17 -44 17h-9q-91 0 -91 -41zM380 777l60 -58l85 91l-41 35q-43 -35 -104 -68zM383 965q23 -14 75 -64l76 69l-72 64q-23 -27 -79 -69zM487 669l60 -69l100 104l-64 50h-3q-87 -85 -93 -85z M487 1052q58 -62 66 -62l105 93q0 7 -68 80zM496 855l38 -32h6q69 61 87 69v3l-44 35zM505 189q0 -52 48 -94q78 102 78 141v37q0 34 -28 104q-98 -109 -98 -188zM505 1489q0 -34 29 -104q100 117 100 185q0 61 -47 94q-82 -91 -82 -141v-34zM518 1267l44 -45l52 54 q-8 0 -47 37zM525 487q9 0 46 -38q41 44 50 44l-44 44q-43 -33 -52 -46v-4zM540 1775q0 -14 16 -42q14 13 27 45q-6 35 -18 35q-25 -7 -25 -38zM553 -18q4 -32 21 -32q12 0 22 35l-13 44q-27 -27 -30 -47zM599 770l66 -51q64 67 79 67l-70 59zM599 943l44 -38q39 35 119 76 v2l-62 57zM687 1251q29 -17 44 -17h16q84 4 84 29v4q0 31 -40 37q-43 -2 -104 -53zM694 474q28 -16 55 -16h29q61 0 69 53q-9 29 -43 29q-45 0 -110 -66zM694 857q10 -15 75 -53q51 26 94 26h22q57 0 101 -38q60 30 60 94q-20 91 -57 91q-41 -54 -94 -54q-43 0 -91 29 q-19 -6 -110 -95zM722 684q59 -40 113 -40h7q104 6 128 62l3 13h-3l-22 -2q-69 0 -157 37zM722 1056l69 -60q70 31 135 31l41 -6l6 29q-27 78 -126 78h-3q-71 -24 -122 -72zM822 779q55 -13 95 -13l34 7v6q-30 25 -69 25q-19 0 -60 -22v-3zM847 981q0 -8 42 -11q37 0 62 26 l-34 3z" />
<glyph unicode="s" horiz-adv-x="2045" d="M50 697q0 35 52 64l21 2q43 0 80 -28q54 80 143 80q83 0 220 -104q47 44 47 50q-61 78 -61 138q9 82 47 96q17 10 38 10h2q55 0 73 -80l2 -12q0 -34 -47 -120l56 -53l71 63q-68 105 -68 185q0 75 87 136q35 17 58 17h14q55 77 143 77q82 0 132 -77l11 2h3q101 0 129 -70 q16 -40 16 -73q0 -63 -70 -160l-7 -7v-2l80 -73q32 -33 40 -33l44 43q-77 91 -77 150v9q0 60 54 85l32 4q34 0 66 -33q12 -24 12 -46v-19q0 -53 -38 -110q43 -46 66 -61q43 41 143 61l33 2q95 0 176 -75q23 30 59 30q49 0 63 -56q-17 -68 -73 -68q-43 0 -80 28 q-64 -77 -122 -77h-14q-89 0 -227 103q-28 -26 -47 -52q61 -73 61 -136q0 -72 -56 -103l-31 -5h-7q-29 0 -56 47l-12 45q0 35 47 122l-54 54q-4 0 -73 -66q68 -102 68 -185q0 -64 -70 -124q-45 -26 -75 -26h-7l-19 4q-44 -77 -143 -77q-83 0 -129 68h-12q-99 3 -127 84 q-11 33 -11 64q0 62 77 164l-117 108l-47 -42q77 -92 77 -150v-17q0 -35 -35 -70q-9 -7 -51 -12q-78 11 -78 77v22q0 54 38 110q-55 58 -68 58q-84 -61 -174 -61q-94 0 -176 75q-24 -32 -59 -32q-43 0 -61 49zM71 697q10 -23 42 -23q25 0 38 19q-32 25 -49 25 q-31 -5 -31 -21zM221 721q104 -85 150 -85h15q42 0 122 33v2q-116 94 -188 94h-3q-61 0 -96 -44zM287 716q21 24 42 24q28 -11 73 -45l14 -5h7q-6 -28 -33 -28q-11 0 -80 47q-23 2 -23 7zM578 700l52 -50l44 45l-52 54zM592 486q0 -20 21 -49q18 -12 33 -12q26 11 26 40v2 q0 50 -64 111q-16 -24 -16 -52v-40zM592 927q0 -48 54 -105q16 25 16 75q0 42 -28 68h-7q-26 0 -35 -33v-5zM735 725l108 -98l52 61q0 5 -94 98zM773 981q0 -41 72 -129q34 37 54 66q-42 75 -42 131q2 31 9 54l-2 2h-9q-32 0 -71 -51q-11 -45 -11 -73zM780 432 q0 -108 79 -133l-4 32q0 76 42 148q-66 70 -73 71q-30 -36 -44 -92v-26zM855 833q52 -45 94 -89l37 45l-73 103zM859 611l68 -80l59 68l-77 75q-9 -18 -50 -63zM892 1054q0 -35 28 -89h5l7 40q0 57 -35 86h-2zM904 374l9 -54h3q28 34 28 70q0 26 -26 59q-9 -29 -14 -75z M913 1129q64 -41 64 -101q0 -37 -33 -99l80 -98q52 34 72 80q-21 40 -21 84v3q0 74 33 112q-44 66 -108 66q-45 0 -87 -42v-5zM932 284q38 -53 75 -53h12q84 6 103 51v2q-54 37 -54 94q0 38 28 92q-54 69 -96 110q-40 -38 -56 -75q26 -46 26 -94q0 -78 -38 -124v-3zM960 732 l78 -86l35 42q-73 80 -73 87h-2q-16 -14 -38 -43zM981 723q5 14 26 14q8 0 24 -30l21 -10v-7l-21 -7q-7 0 -40 35zM1042 810l73 -75l64 73q-33 32 -71 79q-66 -72 -66 -77zM1047 634q38 -49 80 -127l61 64l-103 103zM1101 1016q0 -26 21 -54l12 64q-4 40 -9 54h-3 q-21 -39 -21 -64zM1113 402q0 -52 28 -80l2 33q0 33 -23 80h-2zM1129 718l101 -107q39 29 78 68l-111 105q-26 -21 -68 -66zM1141 474q30 -71 30 -129l-4 -42h2l26 -2q19 0 54 35q23 34 26 80q0 45 -75 138q-59 -63 -59 -80zM1141 934l80 -80q44 54 44 115v5q0 45 -21 89 q-24 42 -68 42l5 -32q0 -67 -40 -136v-3zM1371 711l52 -54l44 50l-49 47h-3zM1373 937q0 -51 64 -111q16 31 16 54v38q0 46 -47 63q-33 -5 -33 -44zM1383 507q7 -65 32 -65l8 -3q18 0 30 40q0 46 -54 106h-2q-14 -28 -14 -78zM1537 730q121 -89 172 -89l19 -2q56 0 96 44 q-99 85 -160 85h-7q-51 0 -120 -33v-5zM1620 718q11 26 35 26q18 0 63 -40l31 -9h7v-5q-16 -23 -40 -23q-6 0 -80 49zM1894 714q31 -26 52 -26h4q18 0 24 21q-9 23 -45 23q-24 -5 -35 -18z" />
<glyph unicode="t" horiz-adv-x="1105" d="M50 821q0 80 75 128l-1 12v3q0 99 69 126q38 15 72 15q61 0 156 -68l6 -7h3l71 78q31 33 31 39l-40 44q-90 -76 -148 -76h-9q-59 0 -82 53l-5 32q0 33 32 64q24 12 46 12h18q53 0 109 -37q44 42 60 64q-42 43 -60 140l-3 33q0 92 73 173q-30 22 -30 57q0 48 56 62 q67 -16 67 -71q0 -43 -28 -78q76 -64 76 -120v-14q0 -87 -102 -224q26 -27 51 -45q73 60 134 60q70 0 101 -55l4 -30v-8q0 -27 -45 -54l-45 -12q-33 0 -119 46l-52 -52q0 -4 64 -72q100 66 182 66q62 0 122 -68q24 -45 24 -73v-8l-3 -18q75 -43 75 -141q0 -80 -66 -126v-11 q-4 -98 -84 -124q-31 -12 -62 -12q-61 0 -161 76l-105 -115l41 -46q90 76 147 76h17q34 0 69 -35q6 -9 10 -51q-10 -75 -75 -75h-21q-53 0 -108 36q-57 -53 -57 -66q60 -82 60 -170q0 -92 -74 -173q32 -23 32 -57q0 -42 -48 -60l-9 -1q-34 0 -62 49l-3 21q0 43 27 78 q-78 54 -78 140q0 82 102 217q-43 46 -48 46q-77 -60 -136 -60q-80 8 -95 46q-9 16 -9 37v2q0 54 78 71l12 3q33 0 117 -46l53 55l-62 69q-103 -67 -182 -67q-73 0 -133 85q-17 35 -17 57v14q-75 54 -75 141zM92 793q0 -44 41 -85h4q40 62 99 62q36 0 97 -32l97 78 q-34 52 -78 71q-39 -21 -84 -21h-2q-73 0 -111 33q-63 -43 -63 -106zM161 650q0 -31 50 -68q43 -12 72 -12q39 0 126 71q-37 33 -65 54q-73 -42 -129 -42q-30 3 -52 9l-2 -2v-10zM161 965l32 5q65 0 133 -39h2l78 78q-53 44 -112 44h-5q-44 0 -87 -20q-41 -25 -41 -68z M175 689l36 -2q34 0 87 28v4l-39 7q-57 0 -84 -34v-3zM185 913q38 -21 63 -21q26 0 53 21l-62 10q-41 -2 -54 -9v-1zM283 1191q4 -32 43 -32q50 0 108 62q-30 16 -52 16h-38q-44 0 -61 -46zM298 428q0 -26 33 -35h4q48 0 104 53q-26 16 -74 16q-42 0 -67 -27v-7zM370 708 l57 -58q44 52 87 93l-43 36zM374 899q71 -64 76 -64l73 70l-70 63q-32 -33 -79 -69zM473 597l59 -64l98 106l-60 50q-5 0 -97 -92zM475 986q21 -26 65 -66l105 98q-28 38 -66 76zM484 791q13 -16 42 -37l86 76l-42 35q-78 -72 -86 -72v-2zM492 1437q0 -51 31 -117h5 q88 117 88 168l2 18q0 54 -44 93q-82 -96 -82 -156v-6zM493 124q0 -60 45 -94q83 100 83 147v13q0 42 -33 120h-2q-93 -113 -93 -183v-3zM505 1200l42 -44l53 51l-48 44l-47 -49v-2zM510 423l48 -44l48 50l-44 45zM514 1434q0 19 39 63l9 30v6h5q24 -15 24 -39q0 -6 -48 -78 l-3 -15q-26 10 -26 33zM519 136q11 27 43 71l5 13v8q28 -7 28 -33q0 -10 -46 -78q-2 -23 -6 -23q-24 21 -24 42zM522 800q0 8 30 23l9 21h6l7 -21q0 -6 -34 -39l-5 -9q-13 4 -13 25zM526 1703q5 -23 18 -35q26 32 26 51v5q0 17 -21 24q-23 -9 -23 -45zM540 -88q5 -30 21 -30 q22 9 22 42q0 24 -18 37q-25 -32 -25 -49zM583 704q18 -9 62 -48l78 66l-66 57zM583 875l39 -36q48 38 125 78l-63 60zM671 1182q28 -14 76 -14q64 8 64 32l2 7q0 18 -39 30q-44 0 -103 -54v-1zM675 793q38 -39 74 -55q46 26 91 26q77 0 123 -38h2q54 38 54 74v12 q-7 82 -51 101h-3q-36 -53 -92 -53q-36 0 -90 27q-67 -53 -108 -94zM678 409q23 -16 51 -16h39q19 0 48 21q11 17 11 32q-10 25 -39 25h-2q-50 0 -108 -62zM701 988q61 -57 78 -57q69 30 126 30l42 -5v3l3 24q0 20 -35 54q-34 22 -78 26q-45 0 -136 -75zM705 621 q35 -30 90 -45h26q107 0 130 80l-31 -6q-76 0 -146 42q-67 -65 -69 -71zM804 713q29 -9 74 -14l52 9v2q-32 28 -69 28q-24 0 -57 -25zM818 908l33 -4q49 0 78 27l-33 3q-32 0 -78 -24v-2z" />
<glyph unicode="u" horiz-adv-x="1838" d="M87 231.5q-37 193.5 50.5 290t188.5 49t113 -162.5t-59 -167t-126 9.5t-13 134.5q-7 -80 35 -130.5t92.5 9t31.5 152t-98.5 138.5t-146 -52.5t-29.5 -276.5t207 -189t232.5 204.5t-223.5 593.5q-141 206 -141.5 408.5t113.5 293.5q101 84 242 47l48 -20q103 32 178 0 q155 119 294 119q208 18 301 -138q79 34 181.5 19t166.5 -96t51 -196.5t-121 -128t-137 79.5t77 129q-87 -42 -59.5 -119t113 -61t96.5 110t-43.5 162.5t-141.5 88t-168 -4.5q53 -137 40 -245.5t-79.5 -185t-193 -80.5t-207.5 62.5t-90.5 161t70 174.5t245.5 36 q107 69 171 84q-78 141 -272 132q-125 9 -273 -111q62 -76 31 -125.5t-69 -7t6 133.5q-73 14 -147 -3q101 -94 109 -250.5t-121.5 -175t-157.5 143.5q-19 161 132 278l-41 18q-129 32 -222 -45q-100 -84 -100 -282.5t238 -493.5q197 -284 128.5 -512.5t-267 -212t-235.5 210 zM484 1281q25 -136 126.5 -119t100.5 158t-102 223q-135 -88 -125 -262zM768 1448q26 -39 50 6t-32 92q-44 -59 -18 -98zM887.5 1264.5q-0.5 -82.5 68 -147t181 -70t181 62t81 170.5t-35.5 237q-59 -8 -158 -72q68 -53 78 -129.5t-56.5 -96t-94 52.5t23.5 159 q-126 34 -197 -25t-71.5 -141.5zM1153.5 1295.5q27.5 -59.5 66.5 -48t39 74t-75 104.5q-58 -71 -30.5 -130.5z" />
<glyph unicode="v" horiz-adv-x="1838" d="M63 1270.5q-13 115.5 51 196.5t166.5 96t181.5 -19q93 156 301 138q139 0 294 -119q73 32 177 0l49 20q140 37 242 -47q113 -91 113 -293.5t-141 -408.5q-286 -378 -223.5 -593.5t232 -204.5t207 189t-29 276.5t-146 52.5t-98.5 -138.5t31.5 -152t92.5 -9t35 130.5 q42 -73 -13.5 -134.5t-126 -9.5t-58.5 167t112.5 162.5t188.5 -49t51 -290t-236 -210t-267 212t129 512.5q238 295 238 493.5t-101 282.5q-93 77 -222 45l-40 -18q150 -117 132 -278q-28 -162 -157.5 -143.5t-121.5 175t108 250.5q-73 17 -148 3q46 -91 8 -133.5t-69.5 7 t31.5 125.5q-148 120 -273 111q-194 9 -272 -132q64 -15 171 -84q166 44 245.5 -36t70 -174.5t-90.5 -161t-207.5 -62.5t-193 80.5t-80 185t40.5 245.5q-81 24 -168 4.5t-141.5 -88t-43.5 -162.5t96.5 -110t112.5 61t-59 119q106 -37 77 -129t-137 -79.5t-121 128z M440.5 1280q12.5 -103 81 -170.5t180.5 -62t181 70t68.5 147t-71.5 141.5t-197 25q51 -87 23 -159t-94.5 -52.5t-56 96t78.5 129.5q-99 64 -158 72q-48 -134 -35.5 -237zM579 1321.5q0 -62.5 39.5 -74t67 48t-30.5 130.5q-76 -42 -76 -104.5zM1020.5 1454q23.5 -45 49.5 -6 t-17 98q-56 -47 -32.5 -92zM1127.5 1320q-0.5 -141 101 -158t126.5 119q10 174 -126 262q-101 -82 -101.5 -223z" />
<glyph unicode="w" horiz-adv-x="1838" d="M87 1473.5q37 193.5 235.5 209.5t267 -212.5t-128.5 -513.5q-238 -294 -238 -493t100 -283q93 -76 222 -44l41 18q-151 117 -132 277q28 163 157.5 144t121.5 -174.5t-109 -249.5q74 -18 147 -4q-44 92 -6 134t69 -7t-31 -126q148 -120 273 -110q194 -10 272 131 q-64 15 -171 85q-166 -44 -245.5 35t-70 174t90.5 162t207.5 62t193 -81t79.5 -184t-40 -246q81 -24 168 -4.5t141.5 88.5t43.5 162t-96.5 109.5t-113 -60.5t59.5 -118q-106 35 -77 128t137 80.5t121 -128t-51 -196.5t-166.5 -96.5t-181.5 18.5q-93 -156 -301 -138 q-139 0 -294 119q-75 -32 -178 1l-48 -20q-141 -38 -242 46q-114 92 -113.5 294t141.5 409q286 377 223.5 592.5t-232.5 204.5t-207 -189t29.5 -277t146 -52.5t98.5 139t-31.5 152.5t-92.5 8.5t-35 -130.5q-42 74 13 135.5t126 9.5t59 -167.5t-113 -163t-188.5 49.5 t-50.5 290.5zM484 423q-10 -174 125 -261q101 80 102 222t-100.5 158t-126.5 -119zM768 256q-26 -39 18 -99q56 49 32 93.5t-50 5.5zM887.5 439.5q0.5 -82.5 71.5 -141t197 -25.5q-51 87 -23.5 159t94 52.5t56.5 -96t-78 -128.5q99 -64 158 -73q48 134 35.5 237t-81 170 t-181 62t-181 -69.5t-68 -147zM1153.5 408q-27.5 -60 30.5 -130q75 42 75 104.5t-39 74t-66.5 -48.5z" />
<glyph unicode="x" horiz-adv-x="1838" d="M63 434.5q13 115.5 121 128t137 -80.5t-77 -128q86 41 59 118t-112.5 60.5t-96.5 -109.5t43.5 -162t141.5 -88.5t168 4.5q-54 138 -40.5 246t80 184t193 81t207.5 -62t90.5 -162t-70 -174t-245.5 -35q-107 -70 -171 -85q78 -141 272 -131q125 -10 273 110 q-63 77 -31.5 126t69.5 7t-8 -134q75 -14 148 4q-100 94 -108 249.5t121.5 174.5t157.5 -144q18 -160 -132 -277l40 -18q129 -32 222 44q101 84 101 283t-238 493q-197 285 -129 513.5t267 212.5t236 -209.5t-51 -290.5t-188.5 -49.5t-112.5 163t58.5 167.5t126 -9.5 t13.5 -135.5q7 79 -35 130.5t-92.5 -8.5t-31.5 -152.5t98.5 -139t146 52.5t29 277t-207 189t-232 -204.5t223.5 -592.5q141 -207 141 -409t-113 -294q-102 -84 -242 -46l-49 20q-104 -33 -177 -1q-155 -119 -294 -119q-208 -18 -301 138q-79 -34 -181.5 -18.5t-166.5 96.5 t-51 196.5zM440.5 424q-12.5 -103 35.5 -237q59 9 158 73q-68 52 -78.5 128.5t56 96t94.5 -52.5t-23 -159q126 -33 197 25.5t71.5 141t-68.5 147t-181 69.5t-180.5 -62t-81 -170zM579 382.5q0 -62.5 76 -104.5q58 70 30.5 130t-67 48.5t-39.5 -74zM1020.5 250.5 q-23.5 -44.5 32.5 -93.5q43 60 17 99t-49.5 -5.5zM1127.5 384q0.5 -142 101.5 -222q136 87 126 261q-25 135 -126.5 119t-101 -158z" />
<glyph unicode="y" horiz-adv-x="2908" d="M50 944q0 62 22 122q43 93 76 120q30 43 110 100q74 48 128 64q114 40 262 40q136 -14 182 -32q137 -46 166 -84q20 -7 88 -84q64 -107 64 -178l4 -22q0 -135 -56 -196q-37 -56 -116 -110q-118 -56 -138 -60q-66 -14 -120 -14q-97 12 -148 38q-40 24 -88 66 q-54 67 -54 124l-2 24q0 80 60 140q51 38 86 38q0 4 20 4h26q25 0 62 -28q36 -51 36 -62q-1 -4 -70 -22q-62 -45 -62 -80l-2 -14q0 -120 78 -148q60 -26 122 -26q106 13 126 28q93 41 108 66q62 51 92 138q6 19 14 104q-9 72 -24 90q-72 135 -194 190q-86 47 -130 50 q-22 10 -128 20q-228 0 -390 -168q-33 -35 -66 -94q-26 -53 -42 -144q0 -81 28 -150q34 -89 100 -174q21 -29 108 -104q172 -106 266 -106q16 -4 100 -10q92 0 208 28q167 61 296 134q62 31 332 200q117 79 386 188q129 35 208 36l92 6q144 -15 220 -38q13 0 122 -58 q81 -57 104 -94q88 -92 126 -266q10 -36 10 -48v-72q-14 -126 -24 -126q-16 -49 -54 -106q-21 -34 -92 -96q-56 -43 -120 -68q0 -6 -108 -20h-28q-194 0 -270 58q-26 10 -26 14h2q9 0 100 -30q90 -16 108 -16h16q160 0 226 48q25 6 100 68q61 66 80 114q40 80 40 142 q2 0 4 24q0 92 -24 168q-31 82 -84 162q-56 64 -98 92q-18 16 -102 56q-74 32 -172 46l-44 4h-54q-161 0 -308 -74q-190 -83 -340 -176q-244 -146 -370 -206q-56 -39 -268 -108q-107 -22 -182 -22q-93 0 -242 26q-103 23 -238 98q-139 107 -180 210q-29 45 -46 128 q-6 0 -10 118z" />
<glyph unicode="z" horiz-adv-x="2908" d="M50 416v72q0 12 10 48q38 174 126 266q23 37 104 94q109 58 122 58q76 23 220 38l92 -6q79 -1 208 -36q269 -109 386 -188q270 -169 332 -200q129 -73 296 -134q116 -28 208 -28q84 6 100 10q94 0 266 106q87 75 108 104q66 85 100 174q28 69 28 150q-16 91 -42 144 q-33 59 -66 94q-162 168 -390 168q-106 -10 -128 -20q-44 -3 -130 -50q-122 -55 -194 -190q-15 -18 -24 -90q8 -85 14 -104q30 -87 92 -138q15 -25 108 -66q20 -15 126 -28q62 0 122 26q78 28 78 148l-2 14q0 35 -62 80q-69 18 -70 22q0 11 36 62q37 28 62 28h26q20 0 20 -4 q35 0 86 -38q60 -60 60 -140l-2 -24q0 -57 -54 -124q-48 -42 -88 -66q-51 -26 -148 -38q-54 0 -120 14q-20 4 -138 60q-79 54 -116 110q-56 61 -56 196l4 22q0 71 64 178q68 77 88 84q29 38 166 84q46 18 182 32q148 0 262 -40q54 -16 128 -64q80 -57 110 -100 q33 -27 76 -120q22 -60 22 -122q-4 -118 -10 -118q-17 -83 -46 -128q-41 -103 -180 -210q-135 -75 -238 -98q-149 -26 -242 -26q-75 0 -182 22q-212 69 -268 108q-126 60 -370 206q-150 93 -340 176q-147 74 -308 74h-54l-44 -4q-98 -14 -172 -46q-84 -40 -102 -56 q-42 -28 -98 -92q-53 -80 -84 -162q-24 -76 -24 -168q2 -24 4 -24q0 -62 40 -142q19 -48 80 -114q75 -62 100 -68q66 -48 226 -48h16q18 0 108 16q91 30 100 30h2q0 -4 -26 -14q-76 -58 -270 -58h-28q-108 14 -108 20q-64 25 -120 68q-71 62 -92 96q-38 57 -54 106 q-10 0 -24 126z" />
<glyph unicode="&#x2000;" horiz-adv-x="917" />
<glyph unicode="&#x2001;" horiz-adv-x="1835" />
<glyph unicode="&#x2002;" horiz-adv-x="917" />
<glyph unicode="&#x2003;" horiz-adv-x="1835" />
<glyph unicode="&#x2004;" horiz-adv-x="611" />
<glyph unicode="&#x2005;" horiz-adv-x="458" />
<glyph unicode="&#x2006;" horiz-adv-x="305" />
<glyph unicode="&#x2007;" horiz-adv-x="305" />
<glyph unicode="&#x2008;" horiz-adv-x="229" />
<glyph unicode="&#x2009;" horiz-adv-x="367" />
<glyph unicode="&#x200a;" horiz-adv-x="101" />
<glyph unicode="&#x2013;" horiz-adv-x="1024" d="M204 512v204h616v-204h-616z" />
<glyph unicode="&#x2014;" horiz-adv-x="2048" d="M204 512v204h1640v-204h-1640z" />
<glyph unicode="&#x202f;" horiz-adv-x="367" />
<glyph unicode="&#x205f;" horiz-adv-x="458" />
<glyph unicode="&#x2122;" horiz-adv-x="5265" d="M3176 856q0 63 26 112q89 161 301 161h8q49 0 118 -9q200 -37 200 -177q0 -25 -6 -54q-9 -38 -20 -54q14 38 14 75v4q0 50 -51 99q-94 65 -267 65h-8q-139 0 -213 -51q-93 -65 -93 -161q0 -97 96 -174q103 -70 237 -70q105 0 177 15q50 0 321 78q353 105 606 105 q260 0 446 -150q147 -136 147 -282v-14q0 -25 -8 -63q-28 -107 -85 -159q-98 -102 -255 -102q-219 0 -321 141q-41 71 -41 119v6q0 37 6 52q10 46 60 90q62 50 143 50l54 -6q60 -14 91 -35q59 -40 59 -99l-2 -12v-1h-3v3q0 31 -55 67q-84 38 -162 38h-15q-21 0 -56 -9 q-109 -30 -109 -129q0 -86 81 -147q115 -80 301 -80h5q57 0 126 26q41 12 91 57q84 76 84 211q0 78 -45 155q-19 39 -85 94q-65 48 -146 78q-156 45 -268 45h-54q-199 0 -512 -79q-335 -93 -537 -93q-170 0 -279 76q-102 82 -102 188zM50 368v22q19 112 110 112h22 q70 -33 70 -84q-9 -61 -54 -61q-47 3 -47 28q0 10 21 35v5q0 18 -21 21h-2q-30 -5 -45 -24l2 -35l-9 -40v-2q0 -10 12 -24q36 0 66 -16l28 2l35 -4h7q15 8 24 30q44 38 44 45q0 21 47 91q12 52 26 80v3l-16 21v5q0 8 11 21q59 21 118 61q40 47 131 47q18 0 31 -7 q71 0 169 -78q70 -98 92 -99h2q12 6 12 19v19q0 61 23 101q12 32 17 115v31l-5 30q0 17 19 19h9q16 -2 17 -7q26 0 33 -101h9q77 61 148 61l10 -2h23q35 0 92 -33q98 -68 98 -181v-2q0 -59 -75 -151q0 -20 -80 -23q-46 4 -80 14q-89 53 -89 113l5 30q22 89 82 89h14 q43 0 52 -51q-5 -52 -28 -52q-16 0 -36 21h-7q-10 0 -16 -56q0 -12 16 -17l3 3h21q9 0 45 -17h4l21 31q57 13 57 28q-10 21 -10 31v4q0 10 22 59v12l-3 2l-35 12q-36 80 -108 80q-126 0 -169 -85l9 -35l-2 -12q-28 -37 -28 -47v-5l7 -32v-7l-5 -38l14 -42l-2 -38 q7 -28 21 -28q44 -38 54 -38h5l28 7h11l15 -2q47 -28 54 -28h37l12 -3q52 -28 61 -28l47 14l64 -11h11q20 0 36 21q38 14 65 47h3l2 -3q-2 -16 -7 -16q-12 -45 -92 -85q-43 -19 -176 -35q-113 1 -113 12q-23 0 -155 70q-61 54 -99 54h-11q-38 0 -90 -61h-4l-7 7v7 q0 34 40 57q28 40 47 40l51 -12v2l3 3v4q-15 46 -76 125q-33 43 -82 68q-49 40 -54 40l-52 -2l-47 14h-9q-54 -21 -82 -21q-27 0 -57 -57q-33 -20 -35 -30l3 -26v-26l-5 -31v-4l23 -59l-2 -21v-5q0 -21 21 -38l28 5h5l42 -23h3q17 0 68 47q59 10 59 40v2l-3 14q0 50 -49 73 l-10 -5q-25 -59 -49 -59h-5q-30 0 -35 55q3 38 10 39q0 33 94 45q35 0 87 -28q49 -53 49 -118q-11 -89 -24 -89q-92 -75 -150 -75q-52 0 -108 26h-2l-3 -3q-13 -32 -30 -32t-29 28q-13 63 -18 63q-16 64 -24 64h-7l-2 -3l-7 -9q-32 -89 -54 -104q-54 -56 -111 -56h-30 q-132 46 -132 136zM1572 361l2 3h3q27 -33 66 -47q15 -21 35 -21h12l63 11l47 -14q9 0 61 28l12 3h37q7 0 54 28l15 2h11l29 -7h4q10 0 54 38q14 0 21 28l-2 38l14 42l-5 38v7l8 32v5q0 10 -29 47l-2 12l9 35q-43 85 -169 85q-72 0 -108 -80l-35 -12l-3 -2v-12 q22 -49 22 -59v-4q0 -10 -10 -31q0 -15 57 -28l21 -31h4q36 17 45 17h21l3 -3q16 5 16 17q-6 56 -16 56h-7q-20 -21 -36 -21q-23 0 -28 52q10 51 52 51h14q60 0 82 -89l5 -30q0 -60 -89 -113q-34 -10 -80 -14q-80 3 -80 23q-75 92 -75 151v2q0 113 98 181q57 33 92 33h23 l10 2q71 0 148 -61h9q7 101 33 101q1 5 17 7h9q19 -2 19 -19l-5 -30v-31q5 -83 17 -115q23 -40 23 -101v-19q0 -13 12 -19h2q22 1 92 99q99 78 169 78q13 7 31 7q91 0 131 -47q59 -40 118 -61q11 -13 11 -21v-5l-16 -21v-3q14 -28 26 -80q47 -70 47 -91q0 -7 44 -45 q9 -22 24 -30h7l35 4l28 -2q30 16 66 16q12 14 12 24v2l-9 40l2 35q-15 19 -45 24h-2q-21 -3 -21 -21v-5q21 -25 21 -35q0 -25 -47 -28q-45 0 -54 61q0 51 70 84h22q91 0 110 -112v-22q0 -90 -132 -136h-30q-57 0 -111 56q-22 15 -54 104l-7 9l-2 3h-7q-8 0 -24 -64 q-5 0 -18 -63q-12 -28 -29 -28t-30 32l-2 3h-3q-56 -26 -108 -26q-58 0 -150 75q-13 0 -24 89q0 65 50 118q51 28 86 28q94 -12 94 -45q7 -1 10 -39q-5 -55 -35 -55h-5q-24 0 -49 59l-10 5q-49 -23 -49 -73l-3 -14v-2q0 -30 59 -40q51 -47 68 -47h3l42 23h5l28 -5 q21 17 21 38v5l-2 21l23 59v4l-4 31v26l2 26q-2 10 -35 30q-30 57 -57 57q-28 0 -82 21h-9l-47 -14l-52 2q-5 0 -54 -40q-49 -25 -82 -68q-61 -79 -76 -125v-4l3 -3v-2l51 12q19 0 47 -40q40 -23 40 -57v-7l-7 -7h-4q-52 61 -90 61h-11q-38 0 -99 -54q-132 -70 -155 -70 q0 -11 -113 -12q-133 16 -176 35q-80 40 -92 85q-5 0 -7 16z" />
<glyph unicode="&#xe000;" horiz-adv-x="1685" d="M0 1685h1685v-1685h-1685v1685z" />
<glyph unicode="&#xfb01;" horiz-adv-x="5889" d="M3126 691v16q0 38 15 106q22 67 48 105q59 85 168 128q33 16 116 30l51 4h40q94 -10 94 -15q83 -21 142 -65h-2q-56 28 -158 41l-42 2h-15q-109 0 -213 -43q-51 -25 -91 -55q-63 -55 -71 -77q-42 -68 -42 -95q-5 -9 -11 -61v-14q0 -56 30 -131q31 -60 80 -111 q49 -45 81 -65q41 -24 102 -46q85 -25 140 -25h42q73 0 217 35q160 45 309 132l61 39q-100 -51 -261 -97q-177 -44 -294 -44v2q123 22 192 48q172 52 364 155v1h-1q-56 -19 -124 -31q-71 -11 -104 -11h-66q-45 0 -145 22v2q12 -2 43 -2h40q221 0 441 112q40 21 101 64 q26 18 98 79q93 78 184 134q58 35 132 73q129 66 282 100l77 10v-2q-14 0 -147 -51q-142 -63 -245 -128q59 32 142 68q67 27 131 43q101 24 175 24h30q187 0 346 -83q150 -86 208 -234q23 -74 23 -112v-7q0 -114 -95 -218q-61 -55 -104 -73q-39 -19 -91 -32 q-69 -15 -109 -15h-43q-52 0 -136 32q-52 24 -96 58q-39 -23 -115 -43q-105 -22 -175 -22h-40q-222 0 -400 168q0 2 -8 9h1q81 -63 152 -92q147 -64 287 -64h20q106 0 237 42l31 12v1q-44 34 -73 79q-32 52 -32 124q2 57 34 124q18 38 64 77q51 42 120 52q6 3 49 3h10 q53 0 122 -28q26 -14 48 -32q60 -50 60 -112v-13q0 -63 -67 -104q-48 -25 -122 -25q-26 0 -57 5q-5 -42 -53 -101q-54 -50 -82 -58q28 -23 94 -43q71 -15 107 -15h44q134 0 250 75q64 53 70 68q63 87 63 187v29q0 56 -47 142q-20 35 -68 84q-60 52 -92 67q-41 24 -115 49 q-99 25 -169 25q-208 0 -402 -102q-109 -51 -303 -190q156 91 364 157q167 52 318 77l77 12v-2q-147 -30 -260 -70q-135 -44 -300 -124q-113 -58 -242 -142q-294 -210 -321 -223q-107 -67 -196 -104q-182 -72 -358 -72q-160 0 -278 50q-53 21 -104 53q-66 47 -100 90 q-34 40 -54 83q-13 26 -23 78zM5057 616l1 -1v-11q0 -55 62 -135q20 -23 43 -42v-1q38 11 73 40q37 32 61 79q8 21 8 29h-3q-31 8 -58 39q-22 24 -22 52q7 22 22 22h7q26 0 53 -44q9 -37 9 -63v-1q14 -3 43 -3q74 0 129 39q59 49 59 103v3q0 60 -77 116q-60 35 -133 35 q-139 0 -219 -99q-42 -58 -52 -114q-4 -37 -6 -43zM5229 662q0 -40 50 -73l23 -8h3v1q0 75 -45 98q-6 3 -14 3q-12 0 -17 -21zM50 678l4 14q0 22 16 60q0 17 57 108q0 2 52 59q13 15 36 33q68 47 102 62q66 28 123 41q111 19 180 20h46q39 0 189 -27q130 -39 211 -75 q11 0 175 -98q43 16 98 30q16 8 118 17h38q41 0 100 -16q24 -2 66 -24q34 -12 74 -44q14 -7 68 -60q10 -9 27 -43q0 -3 36 -13q61 -25 97 -53q10 -3 59 -55q38 -44 46 -74q6 0 14 -59l-1 -10q0 -29 -8 -48q-8 -27 -25 -48q128 -43 143 -43q138 -30 243 -30h16q40 0 148 21 q60 17 115 45q11 0 115 67q72 66 86 91q30 31 65 114q14 42 21 105v22q0 26 -16 71q-9 29 -48 81q0 8 -67 69q-76 56 -80 56q-89 42 -105 42q-92 30 -172 30l-85 -7q-106 -19 -152 -39q-13 0 -86 -41l-51 -45q-44 -58 -51 -74q-6 0 -18 -72v-21l7 -41q0 -11 27 -53 q52 -52 61 -54q12 -16 61 -37q76 -30 83 -30q64 -14 133 -14l36 3q39 0 121 27q39 18 77 47q29 30 30 39q13 18 18 54l-1 8q0 42 -30 83q-34 30 -86 54q-77 18 -99 18h-34q-91 -15 -91 -22q-75 -35 -84 -65v-15q4 -10 14 -27q20 -25 41 -34q0 -6 85 -19h33v-2l-27 -2h-16 q-29 0 -61 6q-30 6 -42 15q-11 1 -39 30q-8 11 -10 37l2 15q0 10 28 46q10 8 54 34q73 27 152 29q30 0 86 -12q47 -14 78 -36q41 -35 41 -39q32 -38 32 -98l-3 -6q-5 -35 -23 -72q-27 -36 -35 -43q-40 -37 -78 -58q-56 -22 -99 -31q0 -6 -88 -10q-78 7 -133 19 q-57 19 -117 53q-32 22 -87 79q-12 13 -29 47q-6 0 -14 69v36q0 11 18 81q26 47 58 82q11 13 63 54l77 37q95 34 117 34q49 11 140 11q56 0 145 -17q57 -18 84 -32q56 -22 115 -64q11 -2 61 -49q52 -65 63 -89q42 -83 42 -136v-30q0 -10 -10 -65q-24 -77 -52 -123 q-6 -23 -72 -91q-35 -33 -44 -39q-81 -52 -113 -64q-70 -30 -132 -43q-119 -23 -188 -23h-38q-110 1 -110 3q-67 0 -254 54q-11 -12 -31 -22q-21 -15 -79 -33q-82 -15 -151 -15q-17 0 -17 1q-48 0 -112 18l-9 -5q-114 -27 -152 -27h-31l-60 2q-66 7 -100 18q-59 13 -139 46 q-85 40 -180 100l4 -4v-1h-2q-34 -16 -37 -18q-111 -51 -169 -71q-113 -33 -144 -33q-21 -7 -131 -11q-43 0 -129 18q-65 19 -87 35q-40 20 -72 47q-35 25 -54 54q-34 36 -44 71q-15 20 -28 81q-5 0 -9 91zM79 653l2 -29q6 -58 13 -67q10 -39 47 -96q50 -56 65 -65 q42 -34 64 -39q40 -21 104 -39q17 -8 118 -16h3q87 5 149 17q84 23 129 45q96 42 147 74l-205 123q-7 -2 -36 -15q-58 -26 -70 -26q-57 -15 -101 -15h-17q-69 9 -83 17q-20 0 -67 44q-26 39 -26 71v6q0 24 21 66q18 30 35 43q26 22 60 44q69 32 81 32q61 17 115 17h17l68 -4 q26 0 103 -20q78 -29 105 -45q35 -13 126 -72q51 -30 144 -102q17 7 21 11q89 40 174 69v1q-2 0 -4 2q-143 99 -200 134l-115 -54q-29 -21 -55 -33q-4 0 -25 13q30 24 163 94l-54 31q-66 42 -158 86q-13 5 -105 38q-136 37 -185 37h-38q-102 -6 -123 -11q-34 0 -94 -20 q-74 -23 -100 -39q-58 -30 -84 -56q-26 -23 -65 -73q-26 -36 -51 -117q-5 0 -13 -62zM335 636q0 -29 32 -65q17 -14 51 -30q69 -13 79 -13h39q21 0 78 17q71 25 76 30q-3 0 -27 12q-110 44 -143 44h-39l-13 -3q-3 2 -7 9q16 11 46 11h48q23 0 88 -15q81 -20 100 -32 q22 8 38 19q90 50 105 65l31 23q-101 54 -123 61q-47 19 -76 24q-36 11 -119 17q-82 0 -154 -34q-33 -14 -74 -49q-22 -17 -36 -70v-21zM772 588q5 -1 5 -3q17 0 192 -123l165 101v2l-6 5q-112 78 -183 122l-34 -23q-105 -64 -139 -80v-1zM991 446q45 -31 89 -58 q32 -22 122 -65q122 -44 208 -44l82 6q83 13 83 16q-13 4 -15 5q-33 6 -167 82q-80 50 -229 157h-1zM1218 583l85 -68q63 -49 184 -132q69 -41 136 -67q34 13 46 21q47 27 62 46q30 23 50 52l-110 59q-27 16 -258 169q-77 -28 -136 -53zM1274 856l14 -8q15 -8 194 -135 q72 19 81 21q93 14 189 14l36 -5h2q-45 53 -71 70q-24 23 -57 35q-26 16 -75 30q-22 9 -112 17l-57 -2q-25 0 -144 -36v-1zM1510 693l95 -66q116 -83 207 -137q11 21 23 89v51q-13 63 -26 80q-60 12 -108 16q-45 -4 -76 -9q-59 -8 -115 -22v-2zM1665 303q28 -9 103 -17 q74 0 149 26q42 17 65 34q0 1 -16 8q-79 29 -158 69q-3 0 -4 -4q0 -8 -57 -62q-72 -52 -82 -52v-2zM1836 476h2q97 -54 184 -91q9 3 24 37q6 0 10 49l-6 35q-15 47 -21 53q-14 28 -46 63q-5 6 -50 39q-67 34 -84 36q0 -5 8 -28q11 -23 11 -86l-9 -41q0 -14 -23 -66z" />
<glyph unicode="&#xfb02;" horiz-adv-x="5889" d="M3126 775v7q0 114 95 218q61 55 104 73q39 19 91 32q69 15 109 15h43q52 0 136 -32q52 -24 96 -58q39 23 115 43q105 22 175 22h40q222 0 400 -168q0 -2 8 -9h-1q-81 63 -152 92q-147 64 -287 64h-20q-106 0 -237 -42l-31 -12v-1q44 -34 73 -79q32 -52 32 -124 q-2 -57 -34 -124q-18 -38 -64 -77q-51 -42 -120 -52q-6 -3 -49 -3h-10q-53 0 -122 28q-26 14 -48 32q-60 50 -60 112v13q0 63 67 104q48 25 122 25q26 0 57 -5q5 42 53 101q54 50 82 58q-28 23 -94 43q-71 15 -107 15h-44q-134 0 -250 -75q-64 -53 -70 -68q-63 -87 -63 -187 v-29q0 -56 47 -142q20 -35 68 -84q60 -52 92 -67q41 -24 115 -49q99 -25 169 -25q208 0 402 102q109 51 303 190q-156 -91 -364 -157q-167 -52 -318 -77l-77 -12v2q147 30 260 70q135 44 300 124q113 58 242 142q294 210 321 223q107 67 196 104q182 72 358 72 q160 0 278 -50q53 -21 104 -53q66 -47 100 -90q34 -40 54 -83q13 -26 23 -78l5 -37v-16q0 -38 -15 -106q-22 -67 -48 -105q-59 -85 -168 -128q-33 -16 -116 -30l-51 -4h-40q-94 10 -94 15q-83 21 -142 65h2q56 -28 158 -41l42 -2h15q109 0 213 43q51 25 91 55q63 55 71 77 q42 68 42 95q5 9 11 61v14q0 56 -30 131q-31 60 -80 111q-49 45 -81 65q-41 24 -102 46q-85 25 -140 25h-42q-73 0 -217 -35q-160 -45 -309 -132l-61 -39q100 51 261 97q177 44 294 44v-2q-123 -22 -192 -48q-172 -52 -364 -155v-1h1q56 19 124 31q71 11 104 11h66 q45 0 145 -22v-2q-12 2 -43 2h-40q-221 0 -441 -112q-40 -21 -101 -64q-26 -18 -98 -79q-93 -78 -184 -134q-58 -35 -132 -73q-129 -66 -282 -100l-77 -10v2q14 0 147 51q142 63 245 128q-59 -32 -142 -68q-67 -27 -131 -43q-101 -24 -175 -24h-30q-187 0 -346 83 q-150 86 -208 234q-23 74 -23 112zM3421 722q0 -60 77 -116q60 -35 133 -35q139 0 219 99q42 58 52 114q4 37 6 43l-1 1v11q0 55 -62 135q-20 23 -43 42v1q-38 -11 -73 -40q-37 -32 -61 -79q-8 -21 -8 -29h3q31 -8 58 -39q22 -24 22 -52q-7 -22 -22 -22h-7q-26 0 -53 44 q-9 37 -9 63v1q-14 3 -43 3q-74 0 -129 -39q-59 -49 -59 -103v-3zM3660 861q0 -75 45 -98q6 -3 14 -3q12 0 17 21q0 40 -50 73l-23 8h-3v-1zM50 678l4 14q0 22 16 60q0 17 57 108q0 2 52 59q13 15 36 33q68 47 102 62q66 28 123 41q111 19 180 20h46q39 0 189 -27 q130 -39 211 -75q11 0 175 -98q43 16 98 30q16 8 118 17h38q41 0 100 -16q24 -2 66 -24q34 -12 74 -44q14 -7 68 -60q10 -9 27 -43q0 -3 36 -13q61 -25 97 -53q10 -3 59 -55q38 -44 46 -74q6 0 14 -59l-1 -10q0 -29 -8 -48q-8 -27 -25 -48q128 -43 143 -43q138 -30 243 -30 h16q40 0 148 21q60 17 115 45q11 0 115 67q72 66 86 91q30 31 65 114q14 42 21 105v22q0 26 -16 71q-9 29 -48 81q0 8 -67 69q-76 56 -80 56q-89 42 -105 42q-92 30 -172 30l-85 -7q-106 -19 -152 -39q-13 0 -86 -41l-51 -45q-44 -58 -51 -74q-6 0 -18 -72v-21l7 -41 q0 -11 27 -53q52 -52 61 -54q12 -16 61 -37q76 -30 83 -30q64 -14 133 -14l36 3q39 0 121 27q39 18 77 47q29 30 30 39q13 18 18 54l-1 8q0 42 -30 83q-34 30 -86 54q-77 18 -99 18h-34q-91 -15 -91 -22q-75 -35 -84 -65v-15q4 -10 14 -27q20 -25 41 -34q0 -6 85 -19h33v-2 l-27 -2h-16q-29 0 -61 6q-30 6 -42 15q-11 1 -39 30q-8 11 -10 37l2 15q0 10 28 46q10 8 54 34q73 27 152 29q30 0 86 -12q47 -14 78 -36q41 -35 41 -39q32 -38 32 -98l-3 -6q-5 -35 -23 -72q-27 -36 -35 -43q-40 -37 -78 -58q-56 -22 -99 -31q0 -6 -88 -10q-78 7 -133 19 q-57 19 -117 53q-32 22 -87 79q-12 13 -29 47q-6 0 -14 69v36q0 11 18 81q26 47 58 82q11 13 63 54l77 37q95 34 117 34q49 11 140 11q56 0 145 -17q57 -18 84 -32q56 -22 115 -64q11 -2 61 -49q52 -65 63 -89q42 -83 42 -136v-30q0 -10 -10 -65q-24 -77 -52 -123 q-6 -23 -72 -91q-35 -33 -44 -39q-81 -52 -113 -64q-70 -30 -132 -43q-119 -23 -188 -23h-38q-110 1 -110 3q-67 0 -254 54q-11 -12 -31 -22q-21 -15 -79 -33q-82 -15 -151 -15q-17 0 -17 1q-48 0 -112 18l-9 -5q-114 -27 -152 -27h-31l-60 2q-66 7 -100 18q-59 13 -139 46 q-85 40 -180 100l4 -4v-1h-2q-34 -16 -37 -18q-111 -51 -169 -71q-113 -33 -144 -33q-21 -7 -131 -11q-43 0 -129 18q-65 19 -87 35q-40 20 -72 47q-35 25 -54 54q-34 36 -44 71q-15 20 -28 81q-5 0 -9 91zM79 653l2 -29q6 -58 13 -67q10 -39 47 -96q50 -56 65 -65 q42 -34 64 -39q40 -21 104 -39q17 -8 118 -16h3q87 5 149 17q84 23 129 45q96 42 147 74l-205 123q-7 -2 -36 -15q-58 -26 -70 -26q-57 -15 -101 -15h-17q-69 9 -83 17q-20 0 -67 44q-26 39 -26 71v6q0 24 21 66q18 30 35 43q26 22 60 44q69 32 81 32q61 17 115 17h17l68 -4 q26 0 103 -20q78 -29 105 -45q35 -13 126 -72q51 -30 144 -102q17 7 21 11q89 40 174 69v1q-2 0 -4 2q-143 99 -200 134l-115 -54q-29 -21 -55 -33q-4 0 -25 13q30 24 163 94l-54 31q-66 42 -158 86q-13 5 -105 38q-136 37 -185 37h-38q-102 -6 -123 -11q-34 0 -94 -20 q-74 -23 -100 -39q-58 -30 -84 -56q-26 -23 -65 -73q-26 -36 -51 -117q-5 0 -13 -62zM335 636q0 -29 32 -65q17 -14 51 -30q69 -13 79 -13h39q21 0 78 17q71 25 76 30q-3 0 -27 12q-110 44 -143 44h-39l-13 -3q-3 2 -7 9q16 11 46 11h48q23 0 88 -15q81 -20 100 -32 q22 8 38 19q90 50 105 65l31 23q-101 54 -123 61q-47 19 -76 24q-36 11 -119 17q-82 0 -154 -34q-33 -14 -74 -49q-22 -17 -36 -70v-21zM772 588q5 -1 5 -3q17 0 192 -123l165 101v2l-6 5q-112 78 -183 122l-34 -23q-105 -64 -139 -80v-1zM991 446q45 -31 89 -58 q32 -22 122 -65q122 -44 208 -44l82 6q83 13 83 16q-13 4 -15 5q-33 6 -167 82q-80 50 -229 157h-1zM1218 583l85 -68q63 -49 184 -132q69 -41 136 -67q34 13 46 21q47 27 62 46q30 23 50 52l-110 59q-27 16 -258 169q-77 -28 -136 -53zM1274 856l14 -8q15 -8 194 -135 q72 19 81 21q93 14 189 14l36 -5h2q-45 53 -71 70q-24 23 -57 35q-26 16 -75 30q-22 9 -112 17l-57 -2q-25 0 -144 -36v-1zM1510 693l95 -66q116 -83 207 -137q11 21 23 89v51q-13 63 -26 80q-60 12 -108 16q-45 -4 -76 -9q-59 -8 -115 -22v-2zM1665 303q28 -9 103 -17 q74 0 149 26q42 17 65 34q0 1 -16 8q-79 29 -158 69q-3 0 -4 -4q0 -8 -57 -62q-72 -52 -82 -52v-2zM1836 476h2q97 -54 184 -91q9 3 24 37q6 0 10 49l-6 35q-15 47 -21 53q-14 28 -46 63q-5 6 -50 39q-67 34 -84 36q0 -5 8 -28q11 -23 11 -86l-9 -41q0 -14 -23 -66z" />
<glyph unicode="&#xfb03;" horiz-adv-x="8965" d="M6202 691v16q0 38 15 106q22 67 48 105q59 85 168 128q33 16 116 30l51 4h40q94 -10 94 -15q83 -21 142 -65h-2q-56 28 -158 41l-42 2h-15q-109 0 -213 -43q-51 -25 -91 -55q-63 -55 -71 -77q-42 -68 -42 -95q-5 -9 -11 -61v-14q0 -56 30 -131q31 -60 80 -111 q49 -45 81 -65q41 -24 102 -46q85 -25 140 -25h42q73 0 217 35q160 45 309 132l61 39q-100 -51 -261 -97q-177 -44 -294 -44v2q123 22 192 48q172 52 364 155v1h-1q-56 -19 -124 -31q-71 -11 -104 -11h-66q-45 0 -145 22v2q12 -2 43 -2h40q221 0 441 112q40 21 101 64 q26 18 98 79q93 78 184 134q58 35 132 73q129 66 282 100l77 10v-2q-14 0 -147 -51q-142 -63 -245 -128q59 32 142 68q67 27 131 43q101 24 175 24h30q187 0 346 -83q150 -86 208 -234q23 -74 23 -112v-7q0 -114 -95 -218q-61 -55 -104 -73q-39 -19 -91 -32 q-69 -15 -109 -15h-43q-52 0 -136 32q-52 24 -96 58q-39 -23 -115 -43q-105 -22 -175 -22h-40q-222 0 -400 168q0 2 -8 9h1q81 -63 152 -92q147 -64 287 -64h20q106 0 237 42l31 12v1q-44 34 -73 79q-32 52 -32 124q2 57 34 124q18 38 64 77q51 42 120 52q6 3 49 3h10 q53 0 122 -28q26 -14 48 -32q60 -50 60 -112v-13q0 -63 -67 -104q-48 -25 -122 -25q-26 0 -57 5q-5 -42 -53 -101q-54 -50 -82 -58q28 -23 94 -43q71 -15 107 -15h44q134 0 250 75q64 53 70 68q63 87 63 187v29q0 56 -47 142q-20 35 -68 84q-60 52 -92 67q-41 24 -115 49 q-99 25 -169 25q-208 0 -402 -102q-109 -51 -303 -190q156 91 364 157q167 52 318 77l77 12v-2q-147 -30 -260 -70q-135 -44 -300 -124q-113 -58 -242 -142q-294 -210 -321 -223q-107 -67 -196 -104q-182 -72 -358 -72q-160 0 -278 50q-53 21 -104 53q-66 47 -100 90 q-34 40 -54 83q-13 26 -23 78zM8133 616l1 -1v-11q0 -55 62 -135q20 -23 43 -42v-1q38 11 73 40q37 32 61 79q8 21 8 29h-3q-31 8 -58 39q-22 24 -22 52q7 22 22 22h7q26 0 53 -44q9 -37 9 -63v-1q14 -3 43 -3q74 0 129 39q59 49 59 103v3q0 60 -77 116q-60 35 -133 35 q-139 0 -219 -99q-42 -58 -52 -114q-4 -37 -6 -43zM8305 662q0 -40 50 -73l23 -8h3v1q0 75 -45 98q-6 3 -14 3q-12 0 -17 -21zM3126 678l4 14q0 22 16 60q0 17 57 108q0 2 52 59q13 15 36 33q68 47 102 62q66 28 123 41q111 19 180 20h46q39 0 189 -27q130 -39 211 -75 q11 0 175 -98q43 16 98 30q16 8 118 17h38q41 0 100 -16q24 -2 66 -24q34 -12 74 -44q14 -7 68 -60q10 -9 27 -43q0 -3 36 -13q61 -25 97 -53q10 -3 59 -55q38 -44 46 -74q6 0 14 -59l-1 -10q0 -29 -8 -48q-8 -27 -25 -48q128 -43 143 -43q138 -30 243 -30h16q40 0 148 21 q60 17 115 45q11 0 115 67q72 66 86 91q30 31 65 114q14 42 21 105v22q0 26 -16 71q-9 29 -48 81q0 8 -67 69q-76 56 -80 56q-89 42 -105 42q-92 30 -172 30l-85 -7q-106 -19 -152 -39q-13 0 -86 -41l-51 -45q-44 -58 -51 -74q-6 0 -18 -72v-21l7 -41q0 -11 27 -53 q52 -52 61 -54q12 -16 61 -37q76 -30 83 -30q64 -14 133 -14l36 3q39 0 121 27q39 18 77 47q29 30 30 39q13 18 18 54l-1 8q0 42 -30 83q-34 30 -86 54q-77 18 -99 18h-34q-91 -15 -91 -22q-75 -35 -84 -65v-15q4 -10 14 -27q20 -25 41 -34q0 -6 85 -19h33v-2l-27 -2h-16 q-29 0 -61 6q-30 6 -42 15q-11 1 -39 30q-8 11 -10 37l2 15q0 10 28 46q10 8 54 34q73 27 152 29q30 0 86 -12q47 -14 78 -36q41 -35 41 -39q32 -38 32 -98l-3 -6q-5 -35 -23 -72q-27 -36 -35 -43q-40 -37 -78 -58q-56 -22 -99 -31q0 -6 -88 -10q-78 7 -133 19 q-57 19 -117 53q-32 22 -87 79q-12 13 -29 47q-6 0 -14 69v36q0 11 18 81q26 47 58 82q11 13 63 54l77 37q95 34 117 34q49 11 140 11q56 0 145 -17q57 -18 84 -32q56 -22 115 -64q11 -2 61 -49q52 -65 63 -89q42 -83 42 -136v-30q0 -10 -10 -65q-24 -77 -52 -123 q-6 -23 -72 -91q-35 -33 -44 -39q-81 -52 -113 -64q-70 -30 -132 -43q-119 -23 -188 -23h-38q-110 1 -110 3q-67 0 -254 54q-11 -12 -31 -22q-21 -15 -79 -33q-82 -15 -151 -15q-17 0 -17 1q-48 0 -112 18l-9 -5q-114 -27 -152 -27h-31l-60 2q-66 7 -100 18q-59 13 -139 46 q-85 40 -180 100l4 -4v-1h-2q-34 -16 -37 -18q-111 -51 -169 -71q-113 -33 -144 -33q-21 -7 -131 -11q-43 0 -129 18q-65 19 -87 35q-40 20 -72 47q-35 25 -54 54q-34 36 -44 71q-15 20 -28 81q-5 0 -9 91zM3155 653l2 -29q6 -58 13 -67q10 -39 47 -96q50 -56 65 -65 q42 -34 64 -39q40 -21 104 -39q17 -8 118 -16h3q87 5 149 17q84 23 129 45q96 42 147 74l-205 123q-7 -2 -36 -15q-58 -26 -70 -26q-57 -15 -101 -15h-17q-69 9 -83 17q-20 0 -67 44q-26 39 -26 71v6q0 24 21 66q18 30 35 43q26 22 60 44q69 32 81 32q61 17 115 17h17l68 -4 q26 0 103 -20q78 -29 105 -45q35 -13 126 -72q51 -30 144 -102q17 7 21 11q89 40 174 69v1q-2 0 -4 2q-143 99 -200 134l-115 -54q-29 -21 -55 -33q-4 0 -25 13q30 24 163 94l-54 31q-66 42 -158 86q-13 5 -105 38q-136 37 -185 37h-38q-102 -6 -123 -11q-34 0 -94 -20 q-74 -23 -100 -39q-58 -30 -84 -56q-26 -23 -65 -73q-26 -36 -51 -117q-5 0 -13 -62zM3411 636q0 -29 32 -65q17 -14 51 -30q69 -13 79 -13h39q21 0 78 17q71 25 76 30q-3 0 -27 12q-110 44 -143 44h-39l-13 -3q-3 2 -7 9q16 11 46 11h48q23 0 88 -15q81 -20 100 -32 q22 8 38 19q90 50 105 65l31 23q-101 54 -123 61q-47 19 -76 24q-36 11 -119 17q-82 0 -154 -34q-33 -14 -74 -49q-22 -17 -36 -70v-21zM3848 588q5 -1 5 -3q17 0 192 -123l165 101v2l-6 5q-112 78 -183 122l-34 -23q-105 -64 -139 -80v-1zM4067 446q45 -31 89 -58 q32 -22 122 -65q122 -44 208 -44l82 6q83 13 83 16q-13 4 -15 5q-33 6 -167 82q-80 50 -229 157h-1zM4294 583l85 -68q63 -49 184 -132q69 -41 136 -67q34 13 46 21q47 27 62 46q30 23 50 52l-110 59q-27 16 -258 169q-77 -28 -136 -53zM4350 856l14 -8q15 -8 194 -135 q72 19 81 21q93 14 189 14l36 -5h2q-45 53 -71 70q-24 23 -57 35q-26 16 -75 30q-22 9 -112 17l-57 -2q-25 0 -144 -36v-1zM4586 693l95 -66q116 -83 207 -137q11 21 23 89v51q-13 63 -26 80q-60 12 -108 16q-45 -4 -76 -9q-59 -8 -115 -22v-2zM4741 303q28 -9 103 -17 q74 0 149 26q42 17 65 34q0 1 -16 8q-79 29 -158 69q-3 0 -4 -4q0 -8 -57 -62q-72 -52 -82 -52v-2zM4912 476h2q97 -54 184 -91q9 3 24 37q6 0 10 49l-6 35q-15 47 -21 53q-14 28 -46 63q-5 6 -50 39q-67 34 -84 36q0 -5 8 -28q11 -23 11 -86l-9 -41q0 -14 -23 -66zM50 678 l4 14q0 22 16 60q0 17 57 108q0 2 52 59q13 15 36 33q68 47 102 62q66 28 123 41q111 19 180 20h46q39 0 189 -27q130 -39 211 -75q11 0 175 -98q43 16 98 30q16 8 118 17h38q41 0 100 -16q24 -2 66 -24q34 -12 74 -44q14 -7 68 -60q10 -9 27 -43q0 -3 36 -13q61 -25 97 -53 q10 -3 59 -55q38 -44 46 -74q6 0 14 -59l-1 -10q0 -29 -8 -48q-8 -27 -25 -48q128 -43 143 -43q138 -30 243 -30h16q40 0 148 21q60 17 115 45q11 0 115 67q72 66 86 91q30 31 65 114q14 42 21 105v22q0 26 -16 71q-9 29 -48 81q0 8 -67 69q-76 56 -80 56q-89 42 -105 42 q-92 30 -172 30l-85 -7q-106 -19 -152 -39q-13 0 -86 -41l-51 -45q-44 -58 -51 -74q-6 0 -18 -72v-21l7 -41q0 -11 27 -53q52 -52 61 -54q12 -16 61 -37q76 -30 83 -30q64 -14 133 -14l36 3q39 0 121 27q39 18 77 47q29 30 30 39q13 18 18 54l-1 8q0 42 -30 83 q-34 30 -86 54q-77 18 -99 18h-34q-91 -15 -91 -22q-75 -35 -84 -65v-15q4 -10 14 -27q20 -25 41 -34q0 -6 85 -19h33v-2l-27 -2h-16q-29 0 -61 6q-30 6 -42 15q-11 1 -39 30q-8 11 -10 37l2 15q0 10 28 46q10 8 54 34q73 27 152 29q30 0 86 -12q47 -14 78 -36 q41 -35 41 -39q32 -38 32 -98l-3 -6q-5 -35 -23 -72q-27 -36 -35 -43q-40 -37 -78 -58q-56 -22 -99 -31q0 -6 -88 -10q-78 7 -133 19q-57 19 -117 53q-32 22 -87 79q-12 13 -29 47q-6 0 -14 69v36q0 11 18 81q26 47 58 82q11 13 63 54l77 37q95 34 117 34q49 11 140 11 q56 0 145 -17q57 -18 84 -32q56 -22 115 -64q11 -2 61 -49q52 -65 63 -89q42 -83 42 -136v-30q0 -10 -10 -65q-24 -77 -52 -123q-6 -23 -72 -91q-35 -33 -44 -39q-81 -52 -113 -64q-70 -30 -132 -43q-119 -23 -188 -23h-38q-110 1 -110 3q-67 0 -254 54q-11 -12 -31 -22 q-21 -15 -79 -33q-82 -15 -151 -15q-17 0 -17 1q-48 0 -112 18l-9 -5q-114 -27 -152 -27h-31l-60 2q-66 7 -100 18q-59 13 -139 46q-85 40 -180 100l4 -4v-1h-2q-34 -16 -37 -18q-111 -51 -169 -71q-113 -33 -144 -33q-21 -7 -131 -11q-43 0 -129 18q-65 19 -87 35 q-40 20 -72 47q-35 25 -54 54q-34 36 -44 71q-15 20 -28 81q-5 0 -9 91zM79 653l2 -29q6 -58 13 -67q10 -39 47 -96q50 -56 65 -65q42 -34 64 -39q40 -21 104 -39q17 -8 118 -16h3q87 5 149 17q84 23 129 45q96 42 147 74l-205 123q-7 -2 -36 -15q-58 -26 -70 -26 q-57 -15 -101 -15h-17q-69 9 -83 17q-20 0 -67 44q-26 39 -26 71v6q0 24 21 66q18 30 35 43q26 22 60 44q69 32 81 32q61 17 115 17h17l68 -4q26 0 103 -20q78 -29 105 -45q35 -13 126 -72q51 -30 144 -102q17 7 21 11q89 40 174 69v1q-2 0 -4 2q-143 99 -200 134l-115 -54 q-29 -21 -55 -33q-4 0 -25 13q30 24 163 94l-54 31q-66 42 -158 86q-13 5 -105 38q-136 37 -185 37h-38q-102 -6 -123 -11q-34 0 -94 -20q-74 -23 -100 -39q-58 -30 -84 -56q-26 -23 -65 -73q-26 -36 -51 -117q-5 0 -13 -62zM335 636q0 -29 32 -65q17 -14 51 -30 q69 -13 79 -13h39q21 0 78 17q71 25 76 30q-3 0 -27 12q-110 44 -143 44h-39l-13 -3q-3 2 -7 9q16 11 46 11h48q23 0 88 -15q81 -20 100 -32q22 8 38 19q90 50 105 65l31 23q-101 54 -123 61q-47 19 -76 24q-36 11 -119 17q-82 0 -154 -34q-33 -14 -74 -49q-22 -17 -36 -70 v-21zM772 588q5 -1 5 -3q17 0 192 -123l165 101v2l-6 5q-112 78 -183 122l-34 -23q-105 -64 -139 -80v-1zM991 446q45 -31 89 -58q32 -22 122 -65q122 -44 208 -44l82 6q83 13 83 16q-13 4 -15 5q-33 6 -167 82q-80 50 -229 157h-1zM1218 583l85 -68q63 -49 184 -132 q69 -41 136 -67q34 13 46 21q47 27 62 46q30 23 50 52l-110 59q-27 16 -258 169q-77 -28 -136 -53zM1274 856l14 -8q15 -8 194 -135q72 19 81 21q93 14 189 14l36 -5h2q-45 53 -71 70q-24 23 -57 35q-26 16 -75 30q-22 9 -112 17l-57 -2q-25 0 -144 -36v-1zM1510 693l95 -66 q116 -83 207 -137q11 21 23 89v51q-13 63 -26 80q-60 12 -108 16q-45 -4 -76 -9q-59 -8 -115 -22v-2zM1665 303q28 -9 103 -17q74 0 149 26q42 17 65 34q0 1 -16 8q-79 29 -158 69q-3 0 -4 -4q0 -8 -57 -62q-72 -52 -82 -52v-2zM1836 476h2q97 -54 184 -91q9 3 24 37 q6 0 10 49l-6 35q-15 47 -21 53q-14 28 -46 63q-5 6 -50 39q-67 34 -84 36q0 -5 8 -28q11 -23 11 -86l-9 -41q0 -14 -23 -66z" />
<glyph unicode="&#xfb04;" horiz-adv-x="8965" d="M6202 775v7q0 114 95 218q61 55 104 73q39 19 91 32q69 15 109 15h43q52 0 136 -32q52 -24 96 -58q39 23 115 43q105 22 175 22h40q222 0 400 -168q0 -2 8 -9h-1q-81 63 -152 92q-147 64 -287 64h-20q-106 0 -237 -42l-31 -12v-1q44 -34 73 -79q32 -52 32 -124 q-2 -57 -34 -124q-18 -38 -64 -77q-51 -42 -120 -52q-6 -3 -49 -3h-10q-53 0 -122 28q-26 14 -48 32q-60 50 -60 112v13q0 63 67 104q48 25 122 25q26 0 57 -5q5 42 53 101q54 50 82 58q-28 23 -94 43q-71 15 -107 15h-44q-134 0 -250 -75q-64 -53 -70 -68q-63 -87 -63 -187 v-29q0 -56 47 -142q20 -35 68 -84q60 -52 92 -67q41 -24 115 -49q99 -25 169 -25q208 0 402 102q109 51 303 190q-156 -91 -364 -157q-167 -52 -318 -77l-77 -12v2q147 30 260 70q135 44 300 124q113 58 242 142q294 210 321 223q107 67 196 104q182 72 358 72 q160 0 278 -50q53 -21 104 -53q66 -47 100 -90q34 -40 54 -83q13 -26 23 -78l5 -37v-16q0 -38 -15 -106q-22 -67 -48 -105q-59 -85 -168 -128q-33 -16 -116 -30l-51 -4h-40q-94 10 -94 15q-83 21 -142 65h2q56 -28 158 -41l42 -2h15q109 0 213 43q51 25 91 55q63 55 71 77 q42 68 42 95q5 9 11 61v14q0 56 -30 131q-31 60 -80 111q-49 45 -81 65q-41 24 -102 46q-85 25 -140 25h-42q-73 0 -217 -35q-160 -45 -309 -132l-61 -39q100 51 261 97q177 44 294 44v-2q-123 -22 -192 -48q-172 -52 -364 -155v-1h1q56 19 124 31q71 11 104 11h66 q45 0 145 -22v-2q-12 2 -43 2h-40q-221 0 -441 -112q-40 -21 -101 -64q-26 -18 -98 -79q-93 -78 -184 -134q-58 -35 -132 -73q-129 -66 -282 -100l-77 -10v2q14 0 147 51q142 63 245 128q-59 -32 -142 -68q-67 -27 -131 -43q-101 -24 -175 -24h-30q-187 0 -346 83 q-150 86 -208 234q-23 74 -23 112zM6497 722q0 -60 77 -116q60 -35 133 -35q139 0 219 99q42 58 52 114q4 37 6 43l-1 1v11q0 55 -62 135q-20 23 -43 42v1q-38 -11 -73 -40q-37 -32 -61 -79q-8 -21 -8 -29h3q31 -8 58 -39q22 -24 22 -52q-7 -22 -22 -22h-7q-26 0 -53 44 q-9 37 -9 63v1q-14 3 -43 3q-74 0 -129 -39q-59 -49 -59 -103v-3zM6736 861q0 -75 45 -98q6 -3 14 -3q12 0 17 21q0 40 -50 73l-23 8h-3v-1zM3126 678l4 14q0 22 16 60q0 17 57 108q0 2 52 59q13 15 36 33q68 47 102 62q66 28 123 41q111 19 180 20h46q39 0 189 -27 q130 -39 211 -75q11 0 175 -98q43 16 98 30q16 8 118 17h38q41 0 100 -16q24 -2 66 -24q34 -12 74 -44q14 -7 68 -60q10 -9 27 -43q0 -3 36 -13q61 -25 97 -53q10 -3 59 -55q38 -44 46 -74q6 0 14 -59l-1 -10q0 -29 -8 -48q-8 -27 -25 -48q128 -43 143 -43q138 -30 243 -30 h16q40 0 148 21q60 17 115 45q11 0 115 67q72 66 86 91q30 31 65 114q14 42 21 105v22q0 26 -16 71q-9 29 -48 81q0 8 -67 69q-76 56 -80 56q-89 42 -105 42q-92 30 -172 30l-85 -7q-106 -19 -152 -39q-13 0 -86 -41l-51 -45q-44 -58 -51 -74q-6 0 -18 -72v-21l7 -41 q0 -11 27 -53q52 -52 61 -54q12 -16 61 -37q76 -30 83 -30q64 -14 133 -14l36 3q39 0 121 27q39 18 77 47q29 30 30 39q13 18 18 54l-1 8q0 42 -30 83q-34 30 -86 54q-77 18 -99 18h-34q-91 -15 -91 -22q-75 -35 -84 -65v-15q4 -10 14 -27q20 -25 41 -34q0 -6 85 -19h33v-2 l-27 -2h-16q-29 0 -61 6q-30 6 -42 15q-11 1 -39 30q-8 11 -10 37l2 15q0 10 28 46q10 8 54 34q73 27 152 29q30 0 86 -12q47 -14 78 -36q41 -35 41 -39q32 -38 32 -98l-3 -6q-5 -35 -23 -72q-27 -36 -35 -43q-40 -37 -78 -58q-56 -22 -99 -31q0 -6 -88 -10q-78 7 -133 19 q-57 19 -117 53q-32 22 -87 79q-12 13 -29 47q-6 0 -14 69v36q0 11 18 81q26 47 58 82q11 13 63 54l77 37q95 34 117 34q49 11 140 11q56 0 145 -17q57 -18 84 -32q56 -22 115 -64q11 -2 61 -49q52 -65 63 -89q42 -83 42 -136v-30q0 -10 -10 -65q-24 -77 -52 -123 q-6 -23 -72 -91q-35 -33 -44 -39q-81 -52 -113 -64q-70 -30 -132 -43q-119 -23 -188 -23h-38q-110 1 -110 3q-67 0 -254 54q-11 -12 -31 -22q-21 -15 -79 -33q-82 -15 -151 -15q-17 0 -17 1q-48 0 -112 18l-9 -5q-114 -27 -152 -27h-31l-60 2q-66 7 -100 18q-59 13 -139 46 q-85 40 -180 100l4 -4v-1h-2q-34 -16 -37 -18q-111 -51 -169 -71q-113 -33 -144 -33q-21 -7 -131 -11q-43 0 -129 18q-65 19 -87 35q-40 20 -72 47q-35 25 -54 54q-34 36 -44 71q-15 20 -28 81q-5 0 -9 91zM3155 653l2 -29q6 -58 13 -67q10 -39 47 -96q50 -56 65 -65 q42 -34 64 -39q40 -21 104 -39q17 -8 118 -16h3q87 5 149 17q84 23 129 45q96 42 147 74l-205 123q-7 -2 -36 -15q-58 -26 -70 -26q-57 -15 -101 -15h-17q-69 9 -83 17q-20 0 -67 44q-26 39 -26 71v6q0 24 21 66q18 30 35 43q26 22 60 44q69 32 81 32q61 17 115 17h17l68 -4 q26 0 103 -20q78 -29 105 -45q35 -13 126 -72q51 -30 144 -102q17 7 21 11q89 40 174 69v1q-2 0 -4 2q-143 99 -200 134l-115 -54q-29 -21 -55 -33q-4 0 -25 13q30 24 163 94l-54 31q-66 42 -158 86q-13 5 -105 38q-136 37 -185 37h-38q-102 -6 -123 -11q-34 0 -94 -20 q-74 -23 -100 -39q-58 -30 -84 -56q-26 -23 -65 -73q-26 -36 -51 -117q-5 0 -13 -62zM3411 636q0 -29 32 -65q17 -14 51 -30q69 -13 79 -13h39q21 0 78 17q71 25 76 30q-3 0 -27 12q-110 44 -143 44h-39l-13 -3q-3 2 -7 9q16 11 46 11h48q23 0 88 -15q81 -20 100 -32 q22 8 38 19q90 50 105 65l31 23q-101 54 -123 61q-47 19 -76 24q-36 11 -119 17q-82 0 -154 -34q-33 -14 -74 -49q-22 -17 -36 -70v-21zM3848 588q5 -1 5 -3q17 0 192 -123l165 101v2l-6 5q-112 78 -183 122l-34 -23q-105 -64 -139 -80v-1zM4067 446q45 -31 89 -58 q32 -22 122 -65q122 -44 208 -44l82 6q83 13 83 16q-13 4 -15 5q-33 6 -167 82q-80 50 -229 157h-1zM4294 583l85 -68q63 -49 184 -132q69 -41 136 -67q34 13 46 21q47 27 62 46q30 23 50 52l-110 59q-27 16 -258 169q-77 -28 -136 -53zM4350 856l14 -8q15 -8 194 -135 q72 19 81 21q93 14 189 14l36 -5h2q-45 53 -71 70q-24 23 -57 35q-26 16 -75 30q-22 9 -112 17l-57 -2q-25 0 -144 -36v-1zM4586 693l95 -66q116 -83 207 -137q11 21 23 89v51q-13 63 -26 80q-60 12 -108 16q-45 -4 -76 -9q-59 -8 -115 -22v-2zM4741 303q28 -9 103 -17 q74 0 149 26q42 17 65 34q0 1 -16 8q-79 29 -158 69q-3 0 -4 -4q0 -8 -57 -62q-72 -52 -82 -52v-2zM4912 476h2q97 -54 184 -91q9 3 24 37q6 0 10 49l-6 35q-15 47 -21 53q-14 28 -46 63q-5 6 -50 39q-67 34 -84 36q0 -5 8 -28q11 -23 11 -86l-9 -41q0 -14 -23 -66zM50 678 l4 14q0 22 16 60q0 17 57 108q0 2 52 59q13 15 36 33q68 47 102 62q66 28 123 41q111 19 180 20h46q39 0 189 -27q130 -39 211 -75q11 0 175 -98q43 16 98 30q16 8 118 17h38q41 0 100 -16q24 -2 66 -24q34 -12 74 -44q14 -7 68 -60q10 -9 27 -43q0 -3 36 -13q61 -25 97 -53 q10 -3 59 -55q38 -44 46 -74q6 0 14 -59l-1 -10q0 -29 -8 -48q-8 -27 -25 -48q128 -43 143 -43q138 -30 243 -30h16q40 0 148 21q60 17 115 45q11 0 115 67q72 66 86 91q30 31 65 114q14 42 21 105v22q0 26 -16 71q-9 29 -48 81q0 8 -67 69q-76 56 -80 56q-89 42 -105 42 q-92 30 -172 30l-85 -7q-106 -19 -152 -39q-13 0 -86 -41l-51 -45q-44 -58 -51 -74q-6 0 -18 -72v-21l7 -41q0 -11 27 -53q52 -52 61 -54q12 -16 61 -37q76 -30 83 -30q64 -14 133 -14l36 3q39 0 121 27q39 18 77 47q29 30 30 39q13 18 18 54l-1 8q0 42 -30 83 q-34 30 -86 54q-77 18 -99 18h-34q-91 -15 -91 -22q-75 -35 -84 -65v-15q4 -10 14 -27q20 -25 41 -34q0 -6 85 -19h33v-2l-27 -2h-16q-29 0 -61 6q-30 6 -42 15q-11 1 -39 30q-8 11 -10 37l2 15q0 10 28 46q10 8 54 34q73 27 152 29q30 0 86 -12q47 -14 78 -36 q41 -35 41 -39q32 -38 32 -98l-3 -6q-5 -35 -23 -72q-27 -36 -35 -43q-40 -37 -78 -58q-56 -22 -99 -31q0 -6 -88 -10q-78 7 -133 19q-57 19 -117 53q-32 22 -87 79q-12 13 -29 47q-6 0 -14 69v36q0 11 18 81q26 47 58 82q11 13 63 54l77 37q95 34 117 34q49 11 140 11 q56 0 145 -17q57 -18 84 -32q56 -22 115 -64q11 -2 61 -49q52 -65 63 -89q42 -83 42 -136v-30q0 -10 -10 -65q-24 -77 -52 -123q-6 -23 -72 -91q-35 -33 -44 -39q-81 -52 -113 -64q-70 -30 -132 -43q-119 -23 -188 -23h-38q-110 1 -110 3q-67 0 -254 54q-11 -12 -31 -22 q-21 -15 -79 -33q-82 -15 -151 -15q-17 0 -17 1q-48 0 -112 18l-9 -5q-114 -27 -152 -27h-31l-60 2q-66 7 -100 18q-59 13 -139 46q-85 40 -180 100l4 -4v-1h-2q-34 -16 -37 -18q-111 -51 -169 -71q-113 -33 -144 -33q-21 -7 -131 -11q-43 0 -129 18q-65 19 -87 35 q-40 20 -72 47q-35 25 -54 54q-34 36 -44 71q-15 20 -28 81q-5 0 -9 91zM79 653l2 -29q6 -58 13 -67q10 -39 47 -96q50 -56 65 -65q42 -34 64 -39q40 -21 104 -39q17 -8 118 -16h3q87 5 149 17q84 23 129 45q96 42 147 74l-205 123q-7 -2 -36 -15q-58 -26 -70 -26 q-57 -15 -101 -15h-17q-69 9 -83 17q-20 0 -67 44q-26 39 -26 71v6q0 24 21 66q18 30 35 43q26 22 60 44q69 32 81 32q61 17 115 17h17l68 -4q26 0 103 -20q78 -29 105 -45q35 -13 126 -72q51 -30 144 -102q17 7 21 11q89 40 174 69v1q-2 0 -4 2q-143 99 -200 134l-115 -54 q-29 -21 -55 -33q-4 0 -25 13q30 24 163 94l-54 31q-66 42 -158 86q-13 5 -105 38q-136 37 -185 37h-38q-102 -6 -123 -11q-34 0 -94 -20q-74 -23 -100 -39q-58 -30 -84 -56q-26 -23 -65 -73q-26 -36 -51 -117q-5 0 -13 -62zM335 636q0 -29 32 -65q17 -14 51 -30 q69 -13 79 -13h39q21 0 78 17q71 25 76 30q-3 0 -27 12q-110 44 -143 44h-39l-13 -3q-3 2 -7 9q16 11 46 11h48q23 0 88 -15q81 -20 100 -32q22 8 38 19q90 50 105 65l31 23q-101 54 -123 61q-47 19 -76 24q-36 11 -119 17q-82 0 -154 -34q-33 -14 -74 -49q-22 -17 -36 -70 v-21zM772 588q5 -1 5 -3q17 0 192 -123l165 101v2l-6 5q-112 78 -183 122l-34 -23q-105 -64 -139 -80v-1zM991 446q45 -31 89 -58q32 -22 122 -65q122 -44 208 -44l82 6q83 13 83 16q-13 4 -15 5q-33 6 -167 82q-80 50 -229 157h-1zM1218 583l85 -68q63 -49 184 -132 q69 -41 136 -67q34 13 46 21q47 27 62 46q30 23 50 52l-110 59q-27 16 -258 169q-77 -28 -136 -53zM1274 856l14 -8q15 -8 194 -135q72 19 81 21q93 14 189 14l36 -5h2q-45 53 -71 70q-24 23 -57 35q-26 16 -75 30q-22 9 -112 17l-57 -2q-25 0 -144 -36v-1zM1510 693l95 -66 q116 -83 207 -137q11 21 23 89v51q-13 63 -26 80q-60 12 -108 16q-45 -4 -76 -9q-59 -8 -115 -22v-2zM1665 303q28 -9 103 -17q74 0 149 26q42 17 65 34q0 1 -16 8q-79 29 -158 69q-3 0 -4 -4q0 -8 -57 -62q-72 -52 -82 -52v-2zM1836 476h2q97 -54 184 -91q9 3 24 37 q6 0 10 49l-6 35q-15 47 -21 53q-14 28 -46 63q-5 6 -50 39q-67 34 -84 36q0 -5 8 -28q11 -23 11 -86l-9 -41q0 -14 -23 -66z" />
</font>
</defs>
</svg>
